<?xml version="1.0" standalone="no"?>
<!DOCTYPE svg PUBLIC "-//W3C//DTD SVG 20010904//EN"
 "http://www.w3.org/TR/2001/REC-SVG-20010904/DTD/svg10.dtd">
<svg version="1.0" xmlns="http://www.w3.org/2000/svg"
 width="958.000000pt" height="908.000000pt" viewBox="0 0 958.000000 908.000000"
 preserveAspectRatio="xMidYMid meet">

<g transform="translate(0.000000,908.000000) scale(0.100000,-0.100000)"
fill="black" stroke="none">
<path d="M0 9060 c0 -20 7 -20 427 -20 425 0 426 0 408 20 -18 19 -31 20 -427
20 -401 0 -408 0 -408 -20z"/>
<path d="M880 9071 c0 -22 34 -30 130 -33 l103 -3 66 -91 c71 -99 141 -177
210 -236 78 -66 -25 -38 -138 38 -36 24 -69 40 -73 37 -5 -3 57 -72 139 -153
81 -82 152 -146 156 -143 5 3 -26 41 -69 84 -42 44 -75 81 -73 83 6 6 148 -30
197 -50 l43 -18 199 199 200 199 -27 28 -27 28 56 0 c42 0 59 5 73 20 18 20
17 20 -573 20 -333 0 -592 -4 -592 -9z m406 -49 c23 -19 94 -127 94 -142 0
-12 -209 141 -210 153 0 15 95 6 116 -11z"/>
<path d="M2102 9068 c-23 -23 -11 -28 71 -28 l83 0 55 -48 c108 -95 217 -182
228 -182 25 0 6 23 -98 117 -60 54 -110 101 -110 106 -1 4 41 7 93 7 l94 0 6
-31 c3 -17 6 -53 6 -80 0 -26 5 -51 10 -54 6 -4 10 25 10 79 l0 86 79 0 80 0
59 -72 c32 -40 75 -98 94 -128 20 -30 44 -62 54 -71 38 -33 163 -88 294 -129
253 -79 395 -178 543 -378 92 -124 94 -130 60 -143 -51 -20 -136 -49 -144 -49
-4 0 -31 38 -59 85 -115 190 -248 338 -359 398 -77 43 -67 7 13 -43 87 -55
185 -161 283 -306 45 -67 83 -127 85 -133 3 -12 -101 -61 -128 -61 -7 0 -25
22 -41 50 -15 27 -32 50 -36 50 -18 0 -17 -32 2 -59 28 -39 27 -46 -15 -71
l-37 -21 -29 28 c-29 28 -42 45 -175 223 -134 182 -322 357 -410 384 -42 13
-24 -13 40 -55 91 -61 282 -258 367 -379 41 -58 94 -128 118 -157 l43 -51 -71
-43 -71 -42 -47 34 c-161 115 -197 146 -292 259 -135 160 -254 258 -396 325
-86 41 -104 46 -104 32 0 -7 49 -41 110 -76 139 -79 197 -126 316 -259 113
-126 211 -214 311 -280 40 -26 73 -49 73 -52 0 -10 -67 -50 -84 -50 -51 0
-128 52 -300 202 -169 147 -213 179 -200 144 5 -14 169 -152 367 -310 53 -43
97 -79 97 -80 0 -2 -35 -28 -79 -59 -59 -43 -87 -57 -113 -57 -19 0 -43 -7
-54 -16 -18 -15 -17 -15 16 -11 19 3 44 9 55 13 24 9 0 -19 -148 -179 -94
-102 -99 -109 -83 -125 16 -16 18 -16 31 2 60 81 191 229 252 285 69 64 121
100 372 258 125 79 157 93 386 172 234 81 235 82 235 93 0 5 -35 49 -78 96
-43 48 -101 117 -130 153 -50 64 -117 122 -194 168 -21 13 -38 25 -38 28 0 3
26 38 58 77 105 130 99 120 75 108 -29 -16 -113 -111 -131 -149 l-15 -32 -46
23 c-25 13 -85 35 -133 50 -97 29 -320 127 -325 142 -2 6 51 32 118 59 66 27
122 52 124 55 2 3 -48 26 -111 50 -62 25 -114 47 -114 50 0 9 382 30 534 30
138 0 139 0 121 20 -18 20 -31 20 -765 20 -567 0 -749 -3 -758 -12z m827 -78
c73 -36 100 -53 94 -63 -4 -7 -26 -36 -47 -65 -32 -44 -41 -51 -51 -40 -13 13
-134 181 -149 206 -16 27 55 10 153 -38z"/>
<path d="M3674 9061 c17 -18 35 -20 215 -23 l196 -3 60 -37 c57 -36 92 -43 48
-10 -12 10 -33 25 -45 34 -22 16 -11 17 220 18 133 0 242 -1 242 -3 0 -2 -74
-57 -165 -123 -90 -65 -164 -122 -165 -126 -1 -21 38 0 161 88 74 54 152 112
175 130 39 32 45 34 121 34 66 0 85 4 104 20 24 19 22 19 -580 20 -598 0 -604
0 -587 -19z"/>
<path d="M4895 9060 c-18 -20 -17 -20 263 -20 156 0 282 -4 282 -9 0 -15 -52
-30 -130 -37 -103 -9 -230 -43 -428 -115 -210 -77 -281 -109 -311 -143 -22
-24 -18 -39 5 -17 13 13 186 81 329 130 160 54 375 110 450 118 66 6 100 20
129 52 18 20 29 21 203 21 140 0 183 -3 183 -12 0 -25 -46 -88 -122 -167 -76
-79 -97 -112 -60 -92 9 5 26 19 37 31 38 42 115 91 207 133 51 24 118 57 148
75 30 17 60 32 67 32 21 0 -84 -143 -162 -220 l-75 -74 -144 -7 c-173 -9 -228
-15 -364 -41 -109 -20 -158 -35 -149 -44 3 -3 155 13 339 36 328 42 334 43
392 77 94 55 308 91 457 78 43 -4 101 -4 130 0 l51 7 -113 114 -114 114 -741
0 c-728 0 -741 0 -759 -20z"/>
<path d="M6555 8970 c103 -104 112 -110 150 -110 112 1 478 73 568 112 38 16
71 28 73 25 9 -9 -322 -333 -368 -363 -27 -16 -48 -31 -48 -34 0 -3 27 -32 60
-65 l60 -60 138 139 137 138 -79 -6 c-75 -6 -78 -5 -65 13 27 36 201 236 225
259 30 27 77 29 135 6 l41 -17 36 37 37 36 -605 0 -605 0 110 -110z m775 62
c0 -11 -61 -38 -119 -52 -62 -16 -339 -70 -359 -70 -16 0 71 65 143 107 37 21
52 23 188 23 81 0 147 -4 147 -8z"/>
<path d="M7685 9060 c-18 -20 -17 -20 760 -20 777 0 778 0 760 20 -18 20 -31
20 -760 20 -729 0 -742 0 -760 -20z"/>
<path d="M9255 9060 c16 -17 33 -20 164 -22 l146 -3 5 -150 6 -150 2 173 2
172 -172 0 c-170 0 -171 0 -153 -20z"/>
<path d="M2051 9016 c-8 -9 -11 -31 -9 -51 5 -40 2 -42 -24 -18 -18 16 -27 9
-211 -175 -105 -105 -188 -194 -185 -198 4 -3 105 -14 225 -24 143 -12 231
-24 257 -35 21 -9 40 -14 43 -11 3 3 -18 35 -47 71 -28 36 -46 65 -40 65 17 0
136 -72 199 -120 30 -22 56 -39 58 -37 2 2 -44 79 -102 170 -106 167 -135 235
-135 317 0 47 -12 66 -29 46z"/>
<path d="M7631 9006 c-9 -11 3 -20 65 -50 146 -69 167 -58 36 19 -86 50 -85
50 -101 31z"/>
<path d="M3800 8941 c0 -6 3 -11 8 -11 4 -1 31 -2 60 -4 28 -2 52 1 52 5 0 5
-13 9 -29 9 -16 0 -43 3 -60 6 -20 4 -31 3 -31 -5z"/>
<path d="M3530 8916 c-100 -23 -211 -68 -232 -94 -11 -13 -10 -14 2 -9 118 47
360 107 430 107 18 0 29 4 25 10 -10 17 -125 10 -225 -14z"/>
<path d="M7511 8879 c-13 -5 -22 -12 -19 -14 6 -6 58 12 58 20 0 7 -11 5 -39
-6z"/>
<path d="M7789 8836 c-101 -42 -172 -58 -365 -81 -50 -6 -54 -10 -200 -156
l-149 -149 140 -139 140 -140 55 15 c70 19 116 13 305 -38 143 -38 294 -93
343 -124 12 -8 22 -11 22 -6 0 10 -89 64 -161 96 -30 14 -127 44 -215 66 -223
58 -212 48 -116 106 45 27 81 54 82 59 0 6 -19 9 -46 6 -50 -4 -266 47 -258
61 3 5 23 17 44 28 35 18 59 20 222 20 210 0 308 -12 348 -40 15 -11 59 -34
97 -51 141 -63 287 -192 403 -356 46 -65 118 -153 161 -195 42 -43 73 -78 70
-78 -4 0 -50 27 -101 60 -104 67 -148 79 -86 25 51 -45 217 -130 292 -150 81
-21 87 -19 26 10 -66 31 -139 103 -236 236 -141 190 -315 373 -423 443 -18 11
-33 23 -33 26 0 3 38 23 84 44 98 44 221 124 326 211 129 108 156 149 69 104
-50 -25 -279 -59 -424 -62 l-90 -2 -108 69 c-73 46 -106 73 -103 82 3 8 9 21
12 29 9 23 -11 18 -127 -29z m213 -117 l120 -72 122 6 c66 3 168 15 225 27 57
11 105 19 107 17 5 -4 -143 -113 -220 -162 -88 -56 -222 -115 -260 -115 -18 0
-53 9 -77 19 -63 28 -237 51 -383 51 -69 0 -126 3 -126 8 0 4 28 26 63 50 l62
42 123 0 c69 0 122 4 122 9 0 15 -84 24 -157 18 l-65 -5 23 24 c57 56 175 153
187 154 7 0 67 -32 134 -71z"/>
<path d="M7382 8855 c-85 -26 -183 -85 -143 -85 24 0 171 63 186 80 21 23 16
24 -43 5z"/>
<path d="M3780 8751 c-96 -35 -137 -62 -93 -60 28 0 207 75 211 88 5 16 -1 14
-118 -28z"/>
<path d="M2710 8741 c0 -5 8 -12 19 -16 48 -15 161 -109 308 -257 89 -89 165
-159 169 -156 8 9 -188 228 -255 285 -127 109 -241 177 -241 144z"/>
<path d="M650 8671 c0 -25 82 -115 190 -206 81 -69 336 -255 349 -255 4 0 61
55 129 123 l122 123 -30 29 c-29 27 -35 29 -100 27 -142 -6 -395 54 -557 133
-51 25 -95 45 -98 45 -3 0 -5 -9 -5 -19z"/>
<path d="M2240 8683 c0 -5 53 -33 117 -63 133 -62 207 -108 306 -187 38 -30
70 -53 73 -50 7 7 -123 124 -186 167 -73 49 -161 93 -239 119 -73 24 -71 24
-71 14z"/>
<path d="M4374 8632 c-132 -93 -162 -119 -142 -127 12 -5 45 15 110 68 154
123 173 158 32 59z"/>
<path d="M9574 8450 c0 -135 2 -190 3 -122 2 67 2 177 0 245 -1 67 -3 12 -3
-123z"/>
<path d="M3918 8641 c-130 -76 -207 -141 -106 -90 43 22 188 118 188 125 0 10
-20 1 -82 -35z"/>
<path d="M4895 8641 c-157 -66 -307 -148 -399 -218 -84 -64 -111 -93 -87 -93
6 0 46 26 89 58 72 53 124 83 412 236 121 64 115 72 -15 17z"/>
<path d="M6352 8600 c-281 -70 -313 -85 -125 -59 91 12 427 120 368 118 -5 0
-115 -27 -243 -59z"/>
<path d="M4413 8509 c-57 -38 -103 -74 -103 -79 0 -16 26 -12 41 6 7 8 50 43
96 76 46 33 83 62 83 64 0 10 -23 -3 -117 -67z"/>
<path d="M6835 8555 c-27 -13 -93 -34 -145 -46 -100 -24 -124 -35 -113 -52 4
-7 75 -8 214 -3 115 4 209 3 209 -1 0 -18 -148 -84 -209 -92 -25 -3 -46 -11
-48 -17 -4 -11 83 -54 109 -54 7 0 49 36 93 80 l79 80 -64 65 c-35 36 -67 65
-70 64 -3 0 -27 -11 -55 -24z"/>
<path d="M4550 8525 c-41 -25 -71 -45 -66 -45 10 0 156 80 156 86 0 10 -19 1
-90 -41z"/>
<path d="M4129 8430 c-69 -73 -123 -143 -163 -212 -53 -90 -1 -49 84 67 24 33
71 88 104 123 46 48 57 65 48 74 -10 10 -26 -2 -73 -52z"/>
<path d="M5548 8479 c-153 -18 -428 -82 -428 -101 0 -5 8 -7 18 -4 9 3 55 12
102 20 120 21 453 86 465 90 17 7 -76 4 -157 -5z"/>
<path d="M1500 8454 c0 -3 61 -67 135 -141 94 -94 140 -133 151 -129 9 3 25 6
35 6 31 0 14 16 -54 52 -36 20 -101 71 -158 126 -90 86 -109 101 -109 86z"/>
<path d="M4891 8433 c-40 -14 -126 -52 -190 -85 -168 -87 -204 -109 -193 -120
6 -6 25 0 51 17 23 14 124 67 224 116 162 80 201 101 186 98 -2 0 -37 -12 -78
-26z"/>
<path d="M5665 8383 c-312 -158 -644 -254 -933 -270 l-104 -6 508 -508 c280
-280 513 -509 519 -509 6 0 84 74 175 166 l165 165 -26 22 c-14 12 -47 37 -73
55 -27 18 -46 35 -43 38 3 3 29 -2 58 -10 88 -25 163 -30 177 -13 10 12 3 16
-47 26 -33 6 -110 37 -173 67 -62 31 -167 80 -233 109 -130 57 -336 173 -342
192 -3 8 25 4 84 -12 201 -54 509 -136 528 -141 11 -2 -4 7 -34 21 -68 32
-223 82 -416 136 -82 22 -156 44 -163 48 -7 4 50 20 128 36 136 27 143 27 177
11 19 -9 82 -21 140 -27 183 -19 396 16 584 96 143 60 179 96 44 44 -114 -43
-276 -86 -380 -100 -92 -12 -376 -5 -402 10 -9 5 16 18 69 36 46 16 75 31 66
33 -10 2 -42 -5 -70 -16 -63 -23 -194 -54 -334 -77 -96 -17 -105 -17 -180 0
-44 10 -74 19 -69 21 6 2 81 21 167 43 138 35 375 117 366 127 -2 1 -45 -10
-96 -26 -201 -63 -399 -103 -532 -107 -137 -5 -216 9 -125 22 305 43 615 148
860 292 157 93 137 96 -40 6z m-411 -449 c17 -6 22 -24 8 -24 -5 0 -17 7 -28
15 -19 15 -8 20 20 9z"/>
<path d="M1346 8311 c-65 -65 -116 -124 -112 -129 4 -6 33 -27 66 -47 33 -20
58 -41 55 -45 -8 -14 -128 -47 -217 -61 -129 -20 -103 -39 92 -69 80 -12 148
-26 153 -29 7 -7 -96 -56 -268 -127 -68 -29 -92 -34 -161 -34 -57 0 -85 -4
-93 -14 -8 -10 -8 -16 1 -24 19 -15 460 -47 637 -45 179 1 178 6 19 -95 -126
-80 -178 -105 -265 -131 -68 -20 -90 -39 -64 -55 4 -3 91 -1 191 4 153 8 191
7 227 -5 40 -14 55 -12 263 26 122 23 224 39 227 35 4 -3 -30 -44 -75 -90 -46
-47 -91 -103 -102 -128 -10 -24 -27 -51 -37 -60 -10 -9 -87 -53 -170 -98 -144
-78 -187 -111 -126 -95 58 14 320 55 356 55 38 0 39 0 32 -32 -14 -67 -54
-136 -146 -248 -51 -63 -103 -123 -114 -133 -70 -61 -164 -97 -424 -163 -179
-45 -239 -52 -287 -33 -31 11 -78 4 -69 -11 3 -5 32 -17 63 -26 31 -9 154 -44
272 -80 118 -35 241 -66 272 -70 32 -4 63 -13 69 -20 8 -10 3 -71 -18 -229
-35 -262 -22 -271 38 -24 57 237 70 262 139 274 45 8 70 33 291 295 155 183
242 292 280 350 35 52 29 8 -9 -73 -48 -103 -70 -135 -204 -303 -57 -71 -139
-182 -183 -247 -58 -86 -88 -122 -111 -132 -25 -10 -41 -33 -84 -116 l-53
-104 36 34 c20 19 46 54 57 79 12 24 41 65 65 91 25 27 117 144 205 262 89
118 165 216 171 217 11 4 -46 -123 -97 -218 l-36 -65 61 60 c35 34 66 74 72
95 27 83 140 354 189 450 28 58 85 156 126 218 41 62 74 116 74 121 0 5 -7 14
-15 21 -12 10 -33 2 -112 -41 -244 -131 -280 -143 -503 -164 -85 -8 -177 -17
-205 -21 -63 -9 -56 -2 58 61 78 43 96 58 132 110 42 63 46 65 200 136 113 52
98 62 -20 14 -48 -20 -89 -35 -91 -33 -5 6 107 138 117 138 5 0 9 7 9 15 0 18
-3 18 -60 1 -57 -17 -249 -32 -235 -18 6 5 53 41 105 78 115 83 170 127 170
135 0 3 -53 9 -117 12 -83 4 -144 13 -208 32 -121 35 -185 58 -185 66 0 7 40
20 213 70 42 13 77 26 77 30 0 4 -27 22 -61 40 -34 18 -68 44 -77 57 -42 60
-76 92 -127 118 -30 16 -55 32 -55 37 0 4 18 7 40 7 22 0 40 3 40 8 0 4 -55
62 -123 130 l-122 122 -119 -119z m1214 -1056 c0 -3 -21 -34 -47 -70 -40 -55
-75 -86 -227 -194 -205 -146 -465 -315 -473 -307 -7 7 19 42 161 219 120 150
156 177 237 177 39 0 64 12 189 89 139 86 160 97 160 86z m-152 -244 c-37 -68
-113 -130 -333 -277 -71 -48 -173 -115 -225 -150 -112 -75 -157 -111 -148
-119 3 -3 126 73 272 171 147 97 269 175 271 172 2 -2 -73 -89 -167 -194 -94
-104 -193 -219 -220 -256 -27 -37 -58 -70 -70 -74 -66 -21 -245 12 -572 104
-53 15 -38 27 57 44 128 24 231 60 370 129 228 114 305 162 622 388 93 67 171
121 173 121 2 0 -11 -27 -30 -59z"/>
<path d="M6970 8345 l-74 -74 30 -12 c95 -37 446 -169 451 -169 3 0 -2 9 -12
20 -10 11 -24 20 -32 20 -7 0 -13 6 -13 13 0 11 -259 277 -270 277 -3 0 -39
-34 -80 -75z"/>
<path d="M4232 8357 c-22 -24 -64 -77 -95 -118 -71 -97 -84 -107 -136 -111
-25 -2 -46 -9 -48 -15 -4 -10 40 -12 189 -10 l194 2 35 -28 c19 -15 63 -52 99
-82 36 -30 112 -78 170 -107 97 -47 114 -60 218 -167 61 -63 112 -118 112
-122 0 -5 -9 -32 -21 -61 -11 -29 -41 -109 -65 -176 -24 -68 -48 -130 -55
-138 -8 -10 -37 -14 -103 -14 -173 0 -206 -21 -294 -185 -74 -138 -83 -179
-55 -227 28 -48 158 -221 178 -238 15 -13 31 -7 139 49 156 82 156 82 156 146
0 64 18 83 87 91 l49 6 66 -88 c36 -49 74 -107 84 -129 10 -22 20 -42 22 -45
1 -2 108 101 237 230 l235 235 -537 537 -538 538 -60 0 c-81 0 -92 10 -49 39
19 13 34 27 34 32 0 20 -20 15 -67 -18 -38 -26 -66 -37 -102 -41 -33 -3 -51
-1 -51 6 0 6 27 40 60 75 59 64 72 87 47 87 -14 0 -84 -79 -109 -123 -10 -17
-23 -34 -30 -39 -17 -10 -118 -10 -118 0 0 13 77 120 131 182 27 31 49 60 49
63 0 17 -20 4 -58 -36z"/>
<path d="M3315 8345 c9 -35 81 -185 97 -200 19 -18 0 54 -33 127 -18 37 -40
75 -51 85 -19 17 -19 17 -13 -12z"/>
<path d="M6030 8309 c-127 -10 -160 -16 -160 -27 0 -7 178 7 335 27 l70 8 -65
0 c-36 0 -117 -4 -180 -8z"/>
<path d="M1975 8300 c-7 -11 -3 -12 165 -40 69 -11 167 -31 217 -44 51 -13 91
-20 88 -16 -11 17 -182 71 -268 84 -141 22 -196 26 -202 16z"/>
<path d="M4827 8255 c-179 -52 -256 -89 -234 -111 3 -3 23 4 45 15 22 11 87
38 146 60 163 61 181 77 43 36z"/>
<path d="M2925 8159 c-4 -6 -5 -12 -4 -13 2 -1 64 -49 137 -105 73 -57 135
-101 139 -98 5 6 -8 19 -147 136 -99 84 -116 95 -125 80z"/>
<path d="M9570 7304 l0 -856 -37 7 c-114 20 -357 126 -474 206 -142 96 -211
187 -326 426 -67 141 -76 154 -90 140 -14 -14 -11 -25 37 -119 116 -227 198
-349 281 -419 75 -63 195 -131 307 -175 93 -36 123 -54 89 -54 -10 0 -300 76
-372 97 -18 5 -19 4 -5 -12 22 -26 66 -42 197 -71 121 -26 131 -29 119 -41 -7
-7 -157 10 -206 23 -18 5 -22 4 -15 -5 6 -6 44 -21 84 -33 71 -21 74 -21 160
-5 104 20 210 22 234 5 15 -11 17 -41 20 -243 1 -126 3 268 5 878 1 609 0
1107 -3 1107 -3 0 -5 -385 -5 -856z"/>
<path d="M8100 8099 c0 -6 46 -59 101 -117 56 -59 121 -134 144 -167 58 -81
144 -247 195 -377 39 -98 60 -131 60 -94 0 30 -84 256 -127 343 -25 50 -75
130 -109 177 -35 47 -61 86 -58 86 3 0 31 -18 63 -40 31 -22 65 -40 75 -40 22
0 6 12 -194 149 -73 50 -137 91 -142 91 -4 0 -8 -5 -8 -11z"/>
<path d="M1877 8093 c-11 -10 13 -33 34 -33 11 0 104 -24 207 -54 196 -56 272
-72 272 -58 0 9 -463 152 -491 152 -9 0 -19 -3 -22 -7z"/>
<path d="M7450 8075 c6 -8 20 -17 31 -20 10 -4 19 -13 19 -21 0 -17 34 -17
104 -1 75 18 70 35 -11 36 -37 0 -84 5 -103 11 -47 14 -55 13 -40 -5z"/>
<path d="M7345 8010 c-427 -86 -479 -91 -634 -60 -103 21 -114 22 -128 7 -15
-15 -14 -17 8 -25 13 -5 83 -31 154 -57 72 -26 149 -54 173 -62 23 -9 45 -19
47 -23 9 -15 -100 -34 -185 -34 -71 0 -95 5 -144 27 -76 35 -86 34 -50 -4 l29
-32 -116 7 c-92 5 -119 3 -128 -8 -9 -11 2 -14 65 -20 41 -4 113 -4 158 0 78
6 91 4 192 -29 60 -20 128 -41 152 -47 94 -25 354 -231 402 -319 13 -25 32
-32 -223 78 -103 45 -195 81 -204 81 -9 0 -46 18 -82 39 -71 43 -121 60 -121
43 0 -30 549 -260 730 -307 98 -25 214 -44 318 -51 50 -4 92 -11 92 -15 0 -15
-182 -97 -260 -118 -104 -28 -281 -55 -368 -57 -40 -1 -75 -3 -77 -6 -8 -8 12
-25 80 -65 97 -57 144 -100 200 -183 49 -72 120 -144 201 -201 70 -51 63 -54
-68 -28 -26 5 -105 33 -175 64 -136 59 -153 63 -153 41 0 -20 159 -231 256
-342 43 -49 79 -91 81 -93 2 -3 8 0 13 5 6 6 -19 45 -71 109 -92 114 -104 134
-114 193 -8 47 -7 47 39 28 19 -8 70 -19 113 -26 43 -6 109 -16 146 -22 38 -5
70 -8 73 -5 2 2 -49 48 -115 101 -189 153 -301 289 -301 367 0 21 4 40 10 44
5 3 49 10 97 16 48 6 112 17 142 25 111 31 384 185 364 205 -6 6 -19 6 -37 -1
-51 -19 -186 -11 -356 21 -186 36 -159 20 -282 169 -30 36 -93 94 -140 130
-48 36 -85 66 -84 68 2 1 70 -2 152 -7 l149 -9 178 -112 c98 -61 181 -110 183
-107 7 7 -73 68 -181 139 -55 36 -125 88 -155 117 -30 28 -115 99 -188 159
l-132 107 37 7 c243 47 353 73 350 81 -5 17 -16 16 -112 -3z"/>
<path d="M6426 8006 c7 -18 90 -50 109 -42 25 9 17 23 -25 40 -51 20 -91 21
-84 2z"/>
<path d="M1885 7990 c3 -5 16 -15 28 -21 22 -12 22 -12 3 10 -19 21 -43 30
-31 11z"/>
<path d="M2455 7953 c9 -10 49 -28 300 -142 l90 -41 -35 31 c-49 42 -269 149
-322 156 -28 4 -40 2 -33 -4z"/>
<path d="M2011 7942 c2 -4 23 -25 46 -46 64 -57 226 -118 403 -152 65 -12 22
7 -82 37 -105 30 -234 86 -322 140 -26 17 -46 26 -45 21z"/>
<path d="M5880 7870 c0 -20 97 -115 177 -172 124 -88 128 -90 141 -75 9 10
-13 30 -98 91 -61 44 -110 82 -110 86 0 4 35 -3 79 -15 96 -28 224 -50 245
-42 22 9 20 27 -3 27 -64 0 -327 66 -413 104 -12 5 -18 4 -18 -4z"/>
<path d="M7270 7846 c6 -8 42 -26 78 -39 37 -14 114 -42 172 -63 58 -21 170
-71 249 -110 137 -69 142 -71 110 -38 -59 61 -213 135 -446 215 -157 53 -183
58 -163 35z"/>
<path d="M2685 7668 c-60 -16 -163 -34 -228 -40 -103 -10 -116 -14 -103 -26
30 -30 290 15 416 72 71 32 51 31 -85 -6z"/>
<path d="M2170 7620 c0 -13 12 -17 80 -25 l54 -6 -18 20 c-14 16 -31 21 -68
21 -26 0 -48 -5 -48 -10z"/>
<path d="M6224 7599 c-3 -6 9 -24 27 -39 l34 -29 -66 -1 c-47 0 -70 -5 -79
-15 -11 -13 0 -15 91 -15 57 0 110 4 117 9 10 6 -2 21 -45 54 -62 50 -68 53
-79 36z"/>
<path d="M2226 7541 c-13 -20 24 -32 91 -29 59 3 65 5 43 14 -36 16 -127 26
-134 15z"/>
<path d="M2570 7529 c-47 -4 -97 -6 -112 -3 -36 7 -37 -13 -2 -22 32 -8 144 3
209 20 59 17 37 18 -95 5z"/>
<path d="M8045 7480 c10 -11 20 -20 23 -20 3 0 -3 9 -13 20 -10 11 -20 20 -23
20 -3 0 3 -9 13 -20z"/>
<path d="M2590 7432 c-19 -9 -37 -17 -39 -19 -1 -1 0 -7 4 -12 7 -12 57 12 77
37 14 16 1 14 -42 -6z"/>
<path d="M8110 7440 c0 -5 31 -45 69 -87 78 -88 201 -211 201 -201 0 10 -110
146 -175 216 -59 64 -95 91 -95 72z"/>
<path d="M5857 7232 c-92 -92 -167 -172 -167 -177 0 -6 81 -91 180 -189 134
-134 183 -176 192 -169 15 12 200 46 222 41 8 -2 61 -61 117 -133 l102 -130
-87 -3 c-47 -1 -86 -6 -86 -10 0 -47 30 -87 161 -217 78 -77 147 -140 153
-140 6 0 22 -7 36 -16 14 -9 49 -31 78 -49 62 -38 114 -95 161 -176 59 -102
81 -134 92 -134 20 0 -111 237 -178 320 -211 264 -248 315 -211 294 20 -11 82
-87 258 -314 138 -178 239 -294 240 -274 0 23 -404 546 -467 605 -21 19 -72
78 -114 130 -41 51 -103 129 -138 172 -34 43 -60 81 -58 83 3 3 22 -4 43 -15
38 -21 124 -29 124 -12 0 9 -86 84 -175 153 -70 54 -255 238 -239 238 6 0 100
-38 209 -85 109 -46 201 -82 204 -80 18 18 -173 233 -257 289 -24 15 -41 30
-38 33 5 6 376 -106 489 -148 170 -63 193 -78 326 -219 68 -72 125 -129 128
-126 9 8 -80 131 -137 188 -108 107 -227 171 -435 233 -60 18 -170 51 -243 74
-74 23 -144 41 -157 41 -13 0 -54 20 -91 45 -36 25 -67 45 -68 45 -1 0 -77
-75 -169 -168z"/>
<path d="M2435 7360 c-33 -16 -82 -34 -110 -41 -70 -16 -95 -27 -95 -40 0 -20
93 -3 172 32 88 39 120 58 112 70 -7 12 -11 11 -79 -21z"/>
<path d="M8600 7277 c0 -27 13 -36 26 -16 3 6 -1 18 -10 27 -15 15 -16 14 -16
-11z"/>
<path d="M8010 7039 c0 -15 172 -196 188 -198 6 0 12 2 12 5 0 10 -182 204
-191 204 -5 0 -9 -5 -9 -11z"/>
<path d="M5412 6787 c-133 -133 -242 -247 -242 -253 0 -6 8 -18 18 -26 25 -22
387 -136 517 -163 192 -40 363 -111 535 -223 96 -62 230 -169 230 -183 0 -18
-21 -8 -63 29 -117 106 -221 168 -434 258 -186 78 -226 92 -287 98 -32 4 -134
31 -225 61 -91 29 -206 66 -255 80 l-89 27 -101 -102 c-56 -56 -96 -104 -90
-106 6 -3 64 -35 129 -72 119 -67 164 -104 263 -220 62 -73 213 -188 379 -290
65 -40 137 -87 160 -104 24 -18 45 -29 48 -26 3 3 -17 35 -44 72 -62 81 -136
205 -184 309 -20 44 -37 81 -37 83 0 22 631 -25 699 -52 23 -9 40 -18 38 -21
-2 -2 -42 3 -89 11 -47 8 -172 20 -279 26 -107 6 -223 15 -259 20 -35 5 -65 8
-67 6 -8 -7 22 -80 57 -140 22 -37 40 -72 40 -77 0 -15 19 -10 51 14 27 19 41
22 121 20 97 -3 116 3 194 59 35 25 48 29 95 26 l54 -3 3 -120 c1 -66 0 -130
-3 -141 -2 -12 -28 -36 -57 -54 -107 -67 -128 -83 -134 -106 -3 -13 4 -53 16
-90 27 -80 29 -131 6 -166 -36 -55 -179 -108 -293 -108 -89 0 -109 12 -149 92
-19 37 -32 68 -29 68 2 0 35 -11 72 -25 37 -14 81 -25 98 -23 l30 3 -40 21
c-22 12 -56 25 -75 29 -44 9 -91 33 -107 54 -20 26 -55 150 -48 172 4 11 29
45 56 76 27 31 49 59 49 62 0 3 -40 32 -88 63 -133 88 -238 175 -339 286 -80
85 -105 106 -180 146 -49 25 -110 59 -138 75 l-50 29 -32 -31 -32 -30 24 -23
25 -23 0 -220 c0 -170 -3 -223 -13 -233 -8 -7 -58 -40 -111 -73 -159 -98 -168
-112 -122 -211 28 -61 63 -85 159 -110 l68 -19 18 24 c9 12 42 31 72 42 l54
19 -47 -5 c-27 -2 -48 -3 -48 -1 0 17 42 98 54 102 19 7 133 -51 145 -75 8
-15 7 -20 -6 -25 -14 -6 -14 -9 4 -25 13 -13 22 -38 27 -77 4 -32 9 -68 12
-81 l6 -23 -125 0 c-146 0 -219 -8 -214 -24 2 -6 17 -10 33 -9 245 16 255 14
91 -22 l-78 -17 97 -98 c79 -80 105 -100 140 -109 51 -13 60 -27 12 -17 -29 6
-6 -20 172 -199 169 -169 210 -205 233 -205 15 0 54 -14 87 -31 35 -18 80 -32
112 -35 l53 -6 349 351 350 350 -23 81 c-33 113 -27 147 43 255 75 115 137
198 143 192 4 -4 -38 -219 -83 -427 l-5 -25 24 25 c21 21 34 65 77 260 54 246
79 340 91 340 4 0 22 -43 40 -95 18 -53 38 -100 46 -106 25 -21 14 21 -54 205
l-66 181 -175 177 c-155 157 -178 176 -195 166 -29 -15 -93 -3 -135 26 -20 14
-66 58 -102 98 l-65 72 0 68 0 68 -185 185 -185 185 -243 -243z"/>
<path d="M6260 7002 c0 -10 143 -149 308 -301 153 -140 282 -239 399 -306 46
-25 95 -61 109 -78 l26 -32 -5 30 c-5 29 -138 338 -191 443 -31 60 -136 177
-155 171 -8 -3 8 -29 43 -72 31 -38 72 -98 92 -134 41 -73 158 -333 152 -338
-5 -6 -186 121 -281 197 -73 59 -152 130 -362 327 -93 88 -135 117 -135 93z"/>
<path d="M7480 6977 c0 -31 173 -197 285 -273 125 -85 190 -117 204 -100 8 9
2 17 -27 30 -111 53 -308 202 -409 309 -44 47 -53 52 -53 34z"/>
<path d="M8230 6812 c0 -26 304 -280 314 -263 6 9 -288 271 -304 271 -6 0 -10
-4 -10 -8z"/>
<path d="M8650 6662 c0 -4 32 -36 70 -71 112 -100 188 -229 244 -413 36 -119
126 -460 126 -478 0 -8 -38 43 -85 114 -76 118 -109 156 -121 144 -2 -3 8 -27
22 -54 41 -76 69 -152 109 -296 44 -162 105 -291 179 -380 60 -72 92 -96 108
-80 6 6 -11 30 -46 65 -66 68 -110 130 -140 200 -29 65 -79 237 -71 245 3 3
40 -30 83 -74 90 -92 170 -159 178 -151 4 3 -14 30 -39 59 -101 119 -139 205
-212 478 -75 280 -112 391 -150 453 -49 81 -47 89 16 63 19 -7 47 -16 63 -20
52 -13 12 20 -80 65 -46 23 -113 63 -149 90 -60 44 -105 62 -105 41z"/>
<path d="M8005 6590 c-4 -7 -1 -16 6 -21 27 -18 142 -49 178 -49 31 1 24 5
-54 34 -49 19 -97 37 -106 40 -10 4 -20 2 -24 -4z"/>
<path d="M8874 6575 c11 -8 25 -15 30 -15 6 0 2 7 -8 15 -11 8 -25 15 -30 15
-6 0 -2 -7 8 -15z"/>
<path d="M4720 6539 c-205 -36 -410 -94 -505 -142 -65 -33 -56 -50 12 -22 72
31 153 30 373 -5 112 -17 222 -39 243 -47 l39 -16 94 94 c52 51 94 96 94 100
0 10 -147 38 -225 43 -38 3 -95 0 -125 -5z"/>
<path d="M7450 6461 c0 -11 194 -161 209 -161 34 0 8 28 -88 94 -111 77 -121
83 -121 67z"/>
<path d="M7935 6420 c-7 -11 93 -60 160 -79 149 -41 457 -152 548 -197 84 -43
50 -10 -40 38 -113 60 -196 92 -445 174 -112 37 -206 68 -210 70 -4 3 -10 0
-13 -6z"/>
<path d="M2177 6342 c-10 -11 -26 -50 -37 -88 -60 -209 -184 -384 -413 -581
-138 -117 -133 -113 -120 -113 19 0 211 157 289 236 39 39 98 108 132 154 42
56 62 76 62 63 0 -12 -16 -43 -35 -69 -58 -82 -145 -262 -145 -303 0 -31 28
12 76 119 66 146 78 156 70 60 -19 -218 -12 -194 -78 -254 -66 -60 -186 -125
-197 -107 -5 7 -14 6 -29 -5 -18 -12 -20 -19 -12 -29 14 -17 53 -6 126 35 l55
31 -50 -72 c-46 -66 -54 -89 -31 -89 5 0 24 21 41 48 72 105 141 192 150 186
12 -7 12 -380 0 -402 -7 -14 0 -26 31 -57 l40 -40 -6 95 c-12 204 -18 645 -8
671 9 22 22 28 110 48 117 26 244 42 255 32 9 -9 -38 -76 -106 -151 -27 -30
-44 -56 -38 -58 14 -5 43 18 306 238 216 181 218 183 290 204 65 19 269 56
311 56 47 0 90 18 76 32 -6 6 -125 21 -273 33 -219 19 -270 21 -313 10 -28 -6
-168 -53 -310 -103 -143 -51 -260 -91 -262 -90 -1 2 13 62 32 133 19 72 33
134 31 138 -1 5 -10 0 -20 -11z"/>
<path d="M4686 6318 c2 -7 29 -30 60 -52 l56 -38 29 28 c34 33 30 38 -55 60
-65 17 -97 18 -90 2z"/>
<path d="M7700 6280 c0 -25 211 -131 355 -178 125 -41 245 -64 333 -64 40 1
76 3 78 5 3 2 -37 10 -88 16 -184 24 -386 88 -548 174 -41 22 -79 44 -84 48
-14 12 -46 11 -46 -1z"/>
<path d="M7447 6247 c18 -31 84 -80 94 -70 7 7 -4 22 -31 46 -40 37 -79 51
-63 24z"/>
<path d="M2033 6198 c-61 -64 -279 -434 -271 -460 2 -5 60 82 130 193 134 217
189 309 185 309 -2 0 -21 -19 -44 -42z"/>
<path d="M7600 6181 c0 -4 9 -20 20 -34 30 -38 24 -45 -10 -12 -20 19 -34 25
-40 19 -9 -9 21 -38 198 -187 55 -46 178 -115 292 -164 l55 -24 -150 6 c-82 4
-181 13 -220 21 -89 18 -275 79 -339 111 l-48 24 -24 -22 -23 -22 43 -81 c64
-119 108 -238 165 -446 51 -182 67 -230 82 -230 4 0 6 14 5 31 -1 32 -1 32
114 72 156 54 228 56 318 8 37 -20 86 -59 120 -96 73 -77 97 -145 117 -328 10
-88 28 -178 55 -271 22 -77 40 -147 40 -157 0 -10 11 -31 25 -46 22 -25 24
-26 25 -8 1 19 2 19 20 -4 12 -14 26 -21 36 -17 13 5 7 15 -27 54 -64 72 -86
130 -109 285 -31 210 -40 197 90 132 60 -30 112 -55 115 -55 18 0 -16 26 -100
75 -51 31 -100 64 -108 73 -9 10 -39 76 -67 147 -28 72 -56 137 -63 145 -21
26 -152 119 -190 135 -44 18 -127 19 -197 3 l-52 -12 -37 40 c-52 58 -213 254
-238 289 -20 28 -46 105 -39 112 2 2 65 -44 140 -103 76 -58 140 -103 143
-100 10 9 -23 40 -157 153 -119 100 -177 163 -150 163 7 0 58 -14 115 -32 103
-31 104 -32 140 -84 60 -87 222 -235 308 -282 42 -24 112 -66 154 -95 86 -58
301 -151 376 -162 26 -4 47 -5 47 -2 0 3 -24 19 -52 35 -91 52 -209 194 -282
339 -25 51 -46 75 -46 53 0 -21 59 -139 98 -196 22 -33 68 -87 102 -121 34
-35 58 -63 52 -63 -42 0 -321 157 -473 266 -81 59 -259 228 -259 246 0 7 37 8
103 3 159 -10 427 -9 439 3 7 7 -8 13 -48 18 -55 6 -119 35 -259 114 -196 110
-249 153 -300 239 -28 47 -45 63 -45 42z m33 -767 c54 -62 97 -114 97 -117 0
-7 -132 -59 -137 -53 -5 5 -73 275 -73 290 0 6 3 6 8 1 5 -6 52 -60 105 -121z"/>
<path d="M8230 6035 c0 -42 141 -213 273 -333 71 -64 174 -138 182 -130 3 2
-45 48 -106 102 -61 54 -158 153 -216 220 -132 151 -133 152 -133 141z"/>
<path d="M7260 5960 c24 -33 30 -36 48 -18 17 17 15 23 -13 36 -47 22 -59 16
-35 -18z"/>
<path d="M6760 5898 c0 -7 32 -88 72 -180 65 -153 88 -193 88 -154 0 19 -106
294 -125 322 -17 26 -35 32 -35 12z"/>
<path d="M9574 5660 c0 -135 2 -190 3 -122 2 67 2 177 0 245 -1 67 -3 12 -3
-123z"/>
<path d="M1648 5813 c-18 -21 -40 -47 -48 -59 -8 -11 -23 -23 -32 -27 -10 -3
-24 -23 -33 -43 -13 -32 -14 -40 -2 -52 12 -12 24 1 79 90 35 57 68 109 72
116 14 23 -2 12 -36 -25z"/>
<path d="M3086 5731 c5 -4 47 -25 93 -44 131 -56 236 -124 333 -216 49 -46 91
-81 94 -78 17 17 -114 148 -218 218 -85 58 -239 129 -279 129 -19 0 -29 -4
-23 -9z"/>
<path d="M7050 5625 c0 -10 170 -328 182 -340 22 -22 -7 46 -78 181 -64 123
-104 184 -104 159z"/>
<path d="M1459 5571 c-20 -21 -70 -57 -112 -81 -75 -43 -100 -68 -54 -55 81
25 238 139 223 163 -11 17 -17 14 -57 -27z"/>
<path d="M6793 5511 c7 -60 12 -70 28 -54 14 14 1 79 -19 95 -14 12 -15 7 -9
-41z"/>
<path d="M6926 5511 c-8 -12 147 -381 186 -446 60 -99 208 -261 208 -227 0 5
-37 55 -81 113 -82 105 -160 250 -255 476 -38 90 -47 103 -58 84z"/>
<path d="M1967 5439 c-31 -48 -70 -170 -59 -181 11 -11 28 19 72 134 20 53 11
85 -13 47z"/>
<path d="M8733 5425 c3 -16 24 -82 47 -145 51 -140 64 -199 85 -360 22 -180
24 -186 42 -167 14 13 13 34 -7 192 -12 97 -19 179 -16 182 3 3 29 -15 58 -39
56 -48 162 -118 178 -118 24 0 17 24 -20 71 -23 29 -48 65 -56 82 -15 28 -15
29 8 22 13 -4 57 -23 98 -41 55 -24 78 -30 88 -22 10 9 -11 24 -90 65 -72 37
-117 68 -150 103 -46 50 -62 58 -72 41 -4 -5 23 -64 59 -131 36 -68 64 -124
62 -126 -5 -6 -140 146 -174 196 -17 25 -46 77 -66 115 -19 39 -45 79 -57 90
l-23 20 6 -30z"/>
<path d="M7000 5432 c0 -6 26 -53 59 -104 32 -51 118 -192 191 -313 165 -274
262 -416 276 -402 3 3 -30 61 -74 128 -43 68 -151 243 -240 389 -145 239 -212
334 -212 302z"/>
<path d="M1073 5423 c-57 -2 -103 -8 -103 -13 0 -8 57 -23 137 -36 33 -5 42
-2 67 25 17 18 24 30 15 29 -8 -1 -60 -4 -116 -5z"/>
<path d="M6822 5407 c-11 -13 -13 -50 -7 -179 19 -471 35 -688 64 -868 19
-119 34 -259 40 -390 10 -196 35 -390 67 -530 24 -106 74 -260 84 -260 13 0
13 36 0 59 -12 24 -55 217 -80 366 -27 155 -50 379 -49 480 l0 80 19 -35 c27
-49 25 -25 -5 53 -66 175 -86 364 -113 1061 -6 152 -9 177 -20 163z"/>
<path d="M1655 5389 c-37 -18 -55 -19 -240 -14 -192 5 -247 0 -214 -21 8 -5
103 -10 213 -12 l199 -4 -7 -72 c-4 -39 -15 -123 -26 -186 -29 -180 -43 -328
-36 -396 l6 -63 -68 -68 c-78 -78 -180 -139 -314 -190 -77 -29 -101 -34 -140
-29 -53 7 -73 -8 -42 -32 16 -12 62 -13 294 -8 256 5 375 18 398 41 4 4 -42 4
-103 1 -271 -14 -430 -17 -420 -8 6 5 44 22 85 37 231 85 354 223 517 580 64
140 92 188 79 131 -29 -120 -9 -111 29 14 39 128 40 130 21 130 -9 0 -16 -5
-16 -12 0 -6 -22 -45 -49 -87 -26 -42 -80 -141 -118 -221 -38 -80 -84 -167
-102 -195 l-33 -50 6 105 c2 58 12 154 21 214 21 141 80 373 100 395 16 18 20
42 8 40 -5 0 -26 -9 -48 -20z"/>
<path d="M9569 4365 c-1 -547 -2 -999 -3 -1004 -3 -24 -21 -17 -117 45 -177
114 -212 146 -283 252 -96 145 -141 243 -222 482 -40 120 -93 259 -119 310
-25 51 -45 94 -43 95 2 2 60 -51 129 -118 68 -67 145 -133 169 -145 41 -22 36
-15 -52 70 -53 51 -122 125 -154 163 -32 39 -64 70 -72 70 -8 0 -23 -12 -34
-26 l-19 -25 46 -95 c25 -52 69 -166 96 -254 95 -300 123 -363 231 -523 94
-138 134 -176 261 -251 59 -35 110 -67 113 -72 3 -5 -14 -9 -37 -9 -68 0 -33
-19 41 -22 l65 -3 6 -70 c3 -38 6 424 7 1028 1 603 0 1097 -3 1097 -3 0 -6
-448 -6 -995z"/>
<path d="M4660 5310 c-12 -8 -12 -10 5 -10 11 0 27 5 35 10 12 8 12 10 -5 10
-11 0 -27 -5 -35 -10z"/>
<path d="M1767 5261 c-29 -52 -32 -61 -19 -61 13 0 73 90 67 101 -11 17 -22 9
-48 -40z"/>
<path d="M4578 5283 c6 -2 18 -2 25 0 6 3 1 5 -13 5 -14 0 -19 -2 -12 -5z"/>
<path d="M4960 5280 c-27 -6 -18 -8 43 -9 50 -1 76 3 72 9 -7 11 -62 11 -115
0z"/>
<path d="M4591 5227 c-49 -25 -133 -96 -114 -97 16 0 183 102 183 113 0 13
-24 7 -69 -16z"/>
<path d="M7403 5228 c3 -13 21 -61 40 -108 20 -47 54 -155 76 -241 35 -138
170 -528 208 -602 8 -16 12 -31 10 -33 -8 -8 -164 114 -228 179 -34 34 -113
139 -180 238 -113 170 -134 197 -145 186 -8 -8 48 -112 125 -232 79 -123 81
-126 224 -500 100 -259 153 -410 177 -504 8 -32 14 -41 22 -33 10 10 -15 125
-68 309 -5 19 7 30 88 82 82 53 97 60 129 55 35 -6 37 -4 68 46 18 28 61 83
97 122 55 57 65 73 58 91 -4 12 -9 88 -11 169 -5 184 -8 188 -103 154 -77 -28
-134 -25 -154 8 -7 11 -26 70 -41 129 -23 88 -26 111 -15 117 7 4 20 6 29 2
10 -3 7 5 -9 22 l-25 27 -28 -35 c-16 -20 -33 -36 -38 -36 -4 0 -23 46 -40
103 -19 62 -41 112 -55 127 -13 13 -24 19 -24 13 0 -7 22 -83 49 -170 28 -87
48 -159 46 -161 -8 -8 -69 103 -161 296 -60 124 -103 202 -112 202 -10 0 -13
-7 -9 -22z m217 -448 l42 -69 -21 -27 -21 -26 -9 23 c-35 94 -52 169 -37 169
2 0 23 -31 46 -70z m139 -22 c11 -35 25 -89 31 -120 6 -31 17 -61 24 -67 7 -6
61 -12 121 -13 l109 -3 9 -38 c8 -33 6 -41 -14 -64 -37 -39 -58 -47 -144 -53
l-80 -5 0 -35 c1 -19 4 -66 9 -105 8 -70 8 -70 -12 -52 -11 10 -54 97 -96 193
-80 183 -90 230 -60 273 l16 23 30 -29 31 -28 -7 30 c-15 70 -18 113 -7 134 7
11 13 21 16 21 2 0 12 -28 24 -62z m305 -431 l8 -58 -50 -53 c-28 -29 -67 -79
-87 -110 -34 -53 -56 -68 -70 -46 -12 19 -32 9 -125 -60 -51 -38 -96 -70 -100
-70 -4 0 -14 26 -23 58 -18 66 -20 63 65 156 l54 60 45 -25 c24 -13 50 -36 57
-51 9 -19 18 -25 32 -21 23 6 25 25 6 56 -15 26 -41 181 -32 196 4 5 32 9 64
9 57 -1 112 18 128 44 10 16 20 -13 28 -85z m-470 -25 c58 -46 106 -86 106
-91 0 -7 -105 -101 -113 -101 -4 0 -31 64 -98 233 -11 27 -15 47 -10 45 5 -1
57 -40 115 -86z"/>
<path d="M3056 5230 c11 -11 120 -33 137 -27 6 2 -19 11 -55 20 -78 20 -96 21
-82 7z"/>
<path d="M4856 5221 c-96 -15 -107 -18 -92 -31 15 -12 30 -11 112 9 52 13 94
27 94 32 0 5 -1 8 -2 8 -2 -1 -52 -9 -112 -18z"/>
<path d="M6930 5190 c0 -6 8 -27 19 -48 10 -20 51 -127 90 -237 40 -110 127
-351 193 -535 113 -313 138 -376 138 -340 -1 44 -327 984 -378 1089 -33 68
-62 101 -62 71z"/>
<path d="M2557 5144 c-27 -14 -47 -28 -44 -30 6 -7 97 38 97 48 0 10 3 11 -53
-18z"/>
<path d="M2423 5135 c-84 -32 -269 -128 -256 -132 17 -6 333 138 333 152 0 8
-12 5 -77 -20z"/>
<path d="M3187 5135 c69 -32 233 -65 202 -42 -8 7 -228 67 -241 66 -7 0 10
-11 39 -24z"/>
<path d="M6542 5125 c-11 -14 -23 -45 -27 -68 -11 -63 -21 -77 -30 -39 -3 18
-10 32 -13 32 -10 0 -662 -653 -662 -663 0 -4 9 -7 20 -7 13 0 20 -7 20 -20 0
-13 5 -18 15 -14 8 4 15 2 15 -2 0 -5 13 -15 29 -22 27 -12 34 -11 68 11 62
39 163 88 163 79 0 -4 -61 -79 -136 -166 -103 -120 -133 -160 -125 -170 20
-24 212 81 370 201 24 19 45 32 46 31 2 -2 -14 -53 -35 -113 -40 -116 -54
-191 -66 -337 -5 -64 -3 -92 6 -103 7 -8 15 -15 19 -15 4 0 13 62 20 137 15
166 45 289 104 428 25 58 42 105 38 105 -3 -1 -71 -48 -151 -105 -138 -99
-264 -174 -275 -163 -3 3 88 110 202 238 256 287 312 352 395 461 106 139 194
299 165 299 -7 0 -50 -61 -97 -136 -46 -74 -88 -138 -92 -140 -13 -8 -10 21
17 154 14 68 24 127 21 129 -2 2 -13 -8 -24 -22z"/>
<path d="M4651 5130 c-29 -5 -61 -16 -70 -25 -15 -16 -15 -17 4 -12 11 3 45 8
75 12 83 9 110 16 110 26 0 10 -41 10 -119 -1z"/>
<path d="M9332 5118 c-9 -9 -3 -17 26 -35 39 -24 162 -67 170 -59 2 3 -20 17
-49 32 -30 15 -71 37 -91 50 -44 28 -41 27 -56 12z"/>
<path d="M1665 5066 c-25 -57 -33 -89 -17 -70 14 15 53 117 47 122 -3 3 -16
-20 -30 -52z"/>
<path d="M1974 5048 c-33 -67 -83 -152 -147 -251 -50 -77 -59 -107 -20 -64 30
33 213 335 213 352 0 30 -20 13 -46 -37z"/>
<path d="M2875 5071 c-12 -5 27 -11 99 -15 114 -7 263 -28 301 -43 12 -4 16
-3 12 5 -26 40 -340 81 -412 53z"/>
<path d="M4710 5046 c-116 -50 -161 -76 -154 -87 3 -6 22 -9 43 -7 34 3 36 1
42 -32 l6 -35 2 33 c0 17 5 32 11 32 13 0 89 -130 95 -165 4 -21 -1 -44 -17
-75 -19 -37 -36 -52 -94 -83 -84 -45 -105 -76 -111 -161 -7 -84 16 -116 120
-170 60 -31 91 -41 141 -44 64 -4 64 -4 105 37 52 52 81 99 81 131 0 16 -18
43 -56 81 -35 36 -55 63 -51 72 9 24 111 77 148 77 29 0 45 -11 118 -86 87
-91 113 -135 161 -281 l24 -71 -18 -99 c-24 -126 -37 -157 -86 -202 -22 -20
-45 -51 -50 -68 -11 -43 5 -43 30 0 11 19 38 48 60 66 26 20 43 44 49 69 5 20
17 64 25 98 43 164 -5 325 -146 492 -26 30 -46 57 -44 59 9 10 40 -16 110 -92
74 -82 79 -85 121 -85 24 0 47 5 50 11 10 16 -553 571 -573 565 -56 -17 -75
-18 -68 -7 5 7 19 17 33 22 21 8 23 12 13 24 -17 21 -35 18 -120 -19z m-50
-463 c0 -4 -7 -26 -16 -50 -24 -63 -13 -110 31 -129 19 -8 56 -14 81 -14 44 0
51 4 91 46 42 46 43 46 68 30 38 -25 41 -58 11 -111 -37 -62 -65 -79 -122 -72
-50 5 -158 55 -204 93 -26 23 -30 32 -30 79 0 30 4 65 10 79 11 30 80 72 80
49z"/>
<path d="M7853 5049 c-3 -12 -16 -41 -28 -65 l-22 -43 66 -69 c36 -38 92 -87
124 -111 32 -23 62 -53 67 -66 13 -33 27 -38 34 -12 3 12 6 25 6 28 0 13 -230
209 -245 209 -8 0 -15 5 -15 10 0 21 41 90 53 91 6 0 50 0 97 0 74 -1 83 1 67
13 -15 12 -138 36 -183 36 -9 0 -18 -10 -21 -21z"/>
<path d="M9270 5060 c0 -9 76 -46 118 -57 39 -9 18 14 -38 42 -52 26 -80 32
-80 15z"/>
<path d="M2058 4981 c-5 -70 -12 -81 -180 -310 -65 -88 -118 -165 -118 -172 0
-34 133 130 257 317 l58 87 3 -80 3 -79 -71 -104 c-38 -57 -70 -108 -70 -113
0 -18 34 19 87 95 30 43 58 78 63 78 4 0 11 -25 15 -55 7 -62 10 -56 -82 -215
-33 -58 -77 -136 -98 -175 -21 -38 -40 -64 -42 -58 -6 16 26 158 45 203 7 19
25 50 40 69 14 18 21 32 16 30 -51 -22 -254 -134 -254 -140 0 -15 23 -10 89
21 35 17 66 28 68 26 3 -2 -6 -44 -20 -93 -14 -48 -28 -114 -32 -145 -4 -38
-16 -71 -35 -99 -44 -66 -147 -166 -212 -206 -32 -20 -56 -38 -54 -41 3 -2 69
17 148 44 79 26 145 47 148 46 2 -1 10 -39 17 -84 10 -70 68 -259 114 -375 14
-34 36 -43 45 -19 3 7 -13 56 -36 109 -51 121 -80 233 -83 321 l-2 69 63 44
c35 23 67 43 71 43 5 0 16 -62 25 -137 10 -76 24 -153 32 -171 19 -43 18 -53
-11 -147 -31 -99 -31 -104 0 -75 16 15 34 53 49 104 13 45 36 120 50 169 15
48 31 87 35 87 5 0 15 -31 21 -70 11 -67 11 -71 -14 -116 -31 -55 -27 -73 5
-20 11 20 26 36 33 36 6 0 34 22 60 49 l48 49 -27 29 c-59 62 -75 131 -94 410
-6 77 -20 198 -31 268 -12 70 -19 133 -16 141 3 8 19 14 40 14 28 0 158 49
175 66 7 7 -41 54 -56 54 -8 0 -48 -25 -90 -56 -51 -38 -78 -53 -85 -46 -21
21 3 43 82 79 44 20 80 40 80 45 0 23 -32 15 -98 -23 -40 -23 -74 -40 -76 -38
-2 2 -12 66 -23 142 -20 129 -37 177 -63 177 -4 0 -10 -27 -12 -59z m82 -617
c11 -120 11 -134 -5 -165 -25 -47 -144 -161 -208 -197 -46 -27 -198 -92 -213
-92 -3 0 16 26 43 58 111 128 218 291 313 474 32 62 47 82 51 70 3 -9 12 -76
19 -148z m38 -331 c-3 -28 -11 -59 -18 -68 -12 -14 -17 -13 -47 17 -18 17 -33
39 -33 48 0 8 17 40 37 70 l37 55 14 -35 c8 -21 12 -55 10 -87z m22 -103 c0
-15 -94 -220 -101 -220 -11 0 -21 144 -13 185 6 33 9 36 33 32 14 -3 35 -1 46
3 28 12 35 12 35 0z"/>
<path d="M2435 4949 c-117 -64 -143 -83 -128 -92 8 -5 219 118 248 144 24 23
-20 4 -120 -52z"/>
<path d="M6755 4990 c-3 -5 -10 -98 -15 -207 -9 -184 -15 -291 -25 -435 -6
-81 11 -81 19 0 20 191 46 515 46 574 0 62 -10 92 -25 68z"/>
<path d="M2685 4955 c-85 -16 -148 -37 -240 -80 -110 -52 -107 -47 -51 -104
l48 -49 66 29 c258 116 406 132 711 74 156 -29 141 -27 141 -15 0 10 -103 43
-192 60 -59 12 -87 30 -46 30 13 0 40 -5 61 -11 53 -14 70 -5 27 15 -34 15
-370 67 -427 65 -15 0 -59 -7 -98 -14z"/>
<path d="M9166 4952 c-3 -6 -1 -14 5 -17 14 -9 20 -2 10 14 -6 8 -11 9 -15 3z"/>
<path d="M2222 4812 c-18 -15 -32 -30 -32 -34 0 -10 89 45 90 55 0 15 -26 6
-58 -21z"/>
<path d="M8670 4786 c0 -8 16 -47 35 -87 19 -41 35 -80 35 -87 0 -17 20 -11
33 9 7 11 -2 32 -32 78 -22 35 -43 72 -46 82 -7 22 -25 26 -25 5z"/>
<path d="M8911 4706 c-8 -10 -4 -39 20 -116 34 -115 46 -144 85 -189 42 -51
47 -36 10 37 -33 66 -86 222 -86 254 0 23 -15 31 -29 14z"/>
<path d="M1694 4585 c-31 -42 -87 -101 -125 -132 -38 -32 -69 -61 -69 -65 0
-14 83 42 133 91 45 42 137 160 137 175 0 20 -26 -3 -76 -69z"/>
<path d="M3591 4598 c-11 -30 -10 -30 7 -15 10 10 27 17 37 17 18 0 18 1 -1
15 -27 20 -31 19 -43 -17z"/>
<path d="M3641 4481 c-28 -56 -47 -101 -41 -101 12 0 105 189 97 197 -3 3 -29
-40 -56 -96z"/>
<path d="M6495 4544 c-41 -98 -85 -226 -103 -299 -22 -85 -46 -234 -40 -241 2
-2 41 125 87 282 76 264 96 352 56 258z"/>
<path d="M7006 4538 c3 -18 28 -114 55 -213 87 -324 101 -391 159 -785 22
-151 43 -279 45 -285 3 -5 3 42 0 105 -12 267 -143 937 -223 1141 -28 73 -45
90 -36 37z"/>
<path d="M3508 4377 c-64 -87 -93 -135 -86 -142 15 -16 76 60 136 170 29 54
51 99 50 101 -2 2 -47 -56 -100 -129z"/>
<path d="M6611 4323 c-6 -27 -25 -156 -42 -288 -25 -189 -32 -280 -33 -429 -1
-119 3 -190 9 -193 6 -2 11 30 12 79 6 215 26 439 63 701 11 76 20 147 20 157
0 37 -18 20 -29 -27z"/>
<path d="M5552 4302 c-54 -9 -132 -124 -145 -214 -9 -62 24 -43 38 22 11 52
40 104 75 134 32 26 74 34 85 16 7 -11 25 -4 25 8 0 14 -55 38 -78 34z"/>
<path d="M8500 4286 c0 -16 71 -80 113 -102 41 -22 33 -5 -30 58 -57 57 -83
71 -83 44z"/>
<path d="M8388 4265 c-6 -28 3 -32 21 -11 8 10 8 16 -3 25 -11 9 -15 6 -18
-14z"/>
<path d="M5641 4227 c-9 -11 -5 -41 15 -133 25 -110 27 -142 32 -425 5 -312
-1 -383 -54 -717 -4 -26 -29 -58 -113 -140 -90 -89 -110 -115 -120 -153 -15
-55 -8 -98 25 -156 37 -65 76 -83 176 -83 142 0 175 37 208 236 33 202 32 199
182 364 96 105 200 200 271 245 33 21 34 17 6 -85 -41 -154 -35 -459 11 -538
29 -48 25 -78 -16 -128 -39 -47 -31 -57 18 -22 l31 22 -7 -28 c-4 -16 -4 -96
0 -179 7 -148 7 -150 26 -128 16 21 18 44 18 215 0 210 15 337 71 599 30 140
32 174 8 150 -11 -11 -67 -252 -95 -408 -10 -52 -20 -92 -24 -90 -17 11 -34
140 -34 260 1 127 8 187 41 332 9 40 13 76 9 80 -14 14 -139 -62 -225 -138
-47 -42 -124 -122 -170 -178 -46 -56 -85 -100 -87 -98 -2 1 4 34 12 72 25 114
101 254 205 380 113 136 209 262 209 275 0 16 -30 11 -36 -5 -12 -29 -23 -15
-21 26 1 23 -3 44 -9 46 -7 2 -13 -22 -17 -68 -5 -61 -11 -78 -37 -110 -108
-135 -252 -329 -274 -369 -38 -70 -63 -180 -76 -332 -13 -167 -41 -303 -67
-330 -13 -12 -45 -23 -92 -30 -102 -15 -143 -2 -181 59 -66 104 -51 149 96
288 l105 100 14 105 c8 58 22 148 31 200 33 183 19 779 -23 949 -18 76 -25 87
-42 68z"/>
<path d="M8374 4168 c-64 -68 -333 -397 -400 -488 -73 -98 -180 -220 -194
-220 -5 0 -11 18 -15 41 -4 23 -12 38 -18 36 -9 -3 -11 -44 -9 -143 2 -101 -2
-178 -17 -282 -27 -187 -40 -210 -41 -72 0 161 -37 376 -63 367 -7 -2 -12 -23
-13 -47 -1 -47 -21 -67 -31 -31 -3 12 -11 20 -17 18 -31 -11 23 -607 55 -607
7 0 8 20 4 55 -4 30 -5 55 -2 55 10 0 46 -71 72 -142 44 -123 58 -203 59 -353
1 -77 5 -146 10 -154 18 -28 26 16 26 149 0 161 -21 275 -74 407 -20 50 -36
98 -36 107 0 9 13 40 30 69 33 59 55 173 66 347 11 174 31 182 97 42 25 -54
83 -190 127 -302 85 -213 127 -304 188 -405 42 -69 102 -155 109 -155 2 0 2 3
0 8 -2 4 -34 61 -70 127 -66 121 -130 266 -227 515 -29 74 -75 179 -101 232
-27 54 -49 104 -49 111 0 7 13 25 28 40 l28 27 46 -42 c50 -48 86 -102 112
-168 23 -61 156 -300 166 -300 4 0 -42 109 -102 243 -156 343 -152 332 -145
358 6 24 141 201 157 207 9 3 22 -53 45 -203 21 -131 47 -242 83 -346 31 -91
80 -194 88 -186 3 2 -11 58 -30 123 -59 202 -114 424 -131 532 -16 98 -16 104
2 134 10 17 23 31 28 31 17 1 62 -102 93 -212 16 -58 53 -203 82 -321 50 -205
78 -300 79 -272 1 7 -8 54 -20 105 -11 50 -38 180 -59 287 -39 200 -73 313
-116 387 -13 23 -24 50 -24 61 0 28 36 70 49 57 5 -5 81 -104 169 -218 101
-132 167 -229 182 -265 25 -61 276 -550 292 -567 18 -20 -64 200 -107 286 -41
81 -104 192 -150 264 -14 22 1 12 53 -34 40 -35 74 -62 77 -60 2 2 -48 62
-112 133 -120 136 -218 262 -317 408 -63 93 -66 111 -27 159 l20 24 93 -91
c142 -139 256 -228 383 -298 l50 -27 -31 28 c-18 15 -83 67 -145 115 -63 48
-163 134 -223 192 -97 93 -108 107 -102 130 3 14 5 26 3 26 -2 0 -17 -15 -33
-32z m-748 -925 c4 -10 9 -93 12 -186 3 -144 2 -166 -11 -162 -8 4 -19 16 -25
29 -12 27 -28 309 -18 325 11 17 33 13 42 -6z"/>
<path d="M2498 4045 c-24 -24 -39 -64 -54 -145 -6 -34 -5 -34 80 50 87 85 87
85 65 103 -30 24 -62 21 -91 -8z"/>
<path d="M3280 4058 c0 -21 123 -131 181 -162 83 -44 118 -74 155 -132 19 -30
39 -54 44 -54 13 0 13 1 -5 43 -23 55 -68 101 -146 147 -39 23 -101 71 -138
106 -67 63 -91 76 -91 52z"/>
<path d="M5812 4037 c-22 -23 -29 -47 -14 -47 17 0 65 48 58 58 -10 17 -20 15
-44 -11z"/>
<path d="M6523 4052 c-6 -4 -33 -46 -59 -92 -25 -47 -78 -129 -116 -183 -46
-65 -67 -102 -60 -109 16 -16 151 170 216 300 37 73 42 98 19 84z"/>
<path d="M6774 3844 c8 -216 22 -337 65 -584 20 -114 36 -180 47 -190 15 -14
16 -12 10 15 -5 28 -15 87 -36 215 -19 114 -50 421 -57 569 -6 118 -11 156
-22 159 -12 4 -13 -25 -7 -184z"/>
<path d="M5416 3998 c-9 -12 -16 -41 -16 -64 0 -38 7 -50 65 -113 36 -39 65
-80 65 -90 0 -11 -22 -42 -49 -70 -45 -46 -54 -51 -93 -51 -104 0 -168 40
-187 116 -6 25 -16 42 -21 39 -18 -11 -10 -71 13 -106 28 -43 75 -66 149 -75
81 -9 138 14 178 71 43 63 40 100 -12 165 -72 88 -72 89 -70 146 1 30 0 54 -2
54 -3 0 -12 -10 -20 -22z"/>
<path d="M2446 3822 l-189 -190 18 -83 c31 -143 30 -169 -14 -340 -44 -175
-59 -260 -43 -244 6 6 29 80 51 165 52 196 50 189 62 169 5 -10 23 -57 40
-105 17 -49 64 -157 105 -239 41 -83 74 -161 74 -174 0 -12 -16 -116 -35 -230
-32 -190 -67 -490 -59 -500 2 -2 6 -2 9 0 3 4 115 656 115 675 0 13 32 -20 46
-48 21 -40 61 -304 83 -550 11 -114 22 -212 26 -218 3 -6 11 -7 17 -4 17 11
-8 316 -43 537 -12 71 -18 131 -15 135 8 7 27 -15 125 -143 85 -112 108 -157
165 -326 45 -133 76 -276 76 -350 0 -42 12 -56 29 -35 21 25 -21 259 -73 405
-26 71 -19 76 32 25 26 -27 62 -62 80 -78 44 -38 73 -97 79 -162 6 -57 12 -64
33 -39 10 12 11 24 3 50 -14 43 -6 51 24 23 19 -18 26 -19 36 -9 10 10 3 21
-34 54 -44 40 -170 194 -223 272 -30 43 -38 135 -12 135 7 0 25 9 40 21 34 27
34 64 0 189 -35 128 -83 226 -144 291 l-50 53 -33 -32 c-18 -18 -40 -32 -48
-32 -38 0 -79 83 -79 159 0 89 17 100 82 55 20 -15 44 -24 52 -21 8 3 22 32
31 64 9 32 26 86 38 120 l21 62 -22 158 c-13 87 -28 177 -34 200 -10 41 -87
143 -209 276 l-44 48 -189 -189z"/>
<path d="M3893 3932 c-50 -14 -71 -32 -38 -32 23 0 95 31 95 41 0 5 -1 8 -2 8
-2 -1 -27 -8 -55 -17z"/>
<path d="M5901 3913 c-31 -32 -90 -172 -121 -290 -13 -48 -25 -133 -30 -223
-5 -80 -14 -170 -20 -200 -15 -74 -16 -270 -1 -345 7 -36 20 -68 32 -80 l22
-20 -7 25 c-20 73 -27 243 -16 390 22 305 48 452 110 621 41 115 50 127 83
112 46 -21 68 -83 77 -217 5 -70 15 -136 24 -156 l15 -35 1 51 c0 105 -21 269
-42 311 -19 41 -64 83 -88 83 -6 0 -24 -12 -39 -27z"/>
<path d="M4025 3910 c38 -25 49 -25 35 0 -7 12 -21 20 -38 20 l-27 0 30 -20z"/>
<path d="M7515 3583 c8 -27 15 -84 15 -127 0 -78 0 -79 20 -61 11 10 20 30 20
44 0 20 2 23 10 11 7 -12 12 -12 21 -3 10 10 7 27 -15 80 -29 72 -51 103 -72
103 -10 0 -10 -9 1 -47z"/>
<path d="M2216 3541 c-3 -5 -18 -78 -32 -163 -23 -134 -35 -180 -69 -262 -7
-16 -5 -18 8 -13 21 8 21 18 -1 -208 -10 -101 -16 -209 -12 -245 5 -63 6 -64
13 -25 4 22 14 119 23 215 15 177 51 454 79 610 8 47 15 88 15 93 0 10 -18 9
-24 -2z"/>
<path d="M2137 3512 c-18 -20 -80 -192 -72 -200 3 -3 12 12 21 34 9 21 29 70
46 107 31 72 32 90 5 59z"/>
<path d="M8810 3496 c0 -14 75 -109 147 -186 70 -75 144 -252 168 -403 8 -51
22 -135 30 -187 12 -68 15 -139 13 -250 -3 -135 -7 -165 -29 -228 -26 -73 -21
-87 13 -41 23 31 58 194 58 274 0 161 -58 487 -119 670 -48 144 -76 192 -169
288 -71 72 -112 96 -112 63z"/>
<path d="M2028 3402 c-19 -21 -28 -49 -42 -126 l-16 -98 -117 -125 c-65 -68
-150 -154 -190 -190 -40 -35 -73 -69 -73 -74 0 -27 43 6 186 145 88 85 160
153 161 152 1 -1 -7 -39 -18 -84 -11 -46 -17 -87 -13 -93 8 -14 34 9 34 30 0
9 14 63 31 121 17 58 31 121 31 140 -1 19 12 77 29 128 17 51 29 95 27 98 -3
2 -16 -9 -30 -24z"/>
<path d="M6530 3300 c0 -69 17 -157 32 -166 10 -7 3 168 -8 209 -11 37 -24 14
-24 -43z"/>
<path d="M9140 3330 c30 -4 95 -11 144 -14 79 -6 87 -5 76 9 -10 12 -38 15
-144 14 -105 -1 -120 -3 -76 -9z"/>
<path d="M6710 3276 c0 -18 7 -39 15 -46 13 -11 15 -8 15 18 0 17 -3 37 -6 46
-11 28 -24 17 -24 -18z"/>
<path d="M8630 3275 c0 -8 32 -95 71 -192 39 -98 77 -205 84 -238 8 -33 21
-82 29 -108 8 -26 20 -102 26 -169 11 -133 25 -197 72 -325 26 -72 29 -90 20
-119 -5 -18 -7 -35 -4 -39 8 -8 42 47 42 68 0 27 18 20 40 -15 11 -18 22 -37
24 -43 2 -6 9 -5 17 3 11 10 8 23 -18 75 l-31 64 9 183 c5 101 10 185 12 187
8 7 77 -155 87 -204 17 -79 35 -80 27 -2 -4 38 -19 89 -37 127 -33 70 -129
222 -141 222 -4 0 2 -33 13 -72 19 -69 20 -82 9 -238 -15 -202 -21 -246 -32
-228 -5 7 -9 78 -9 158 0 172 -11 225 -76 360 -25 52 -56 129 -69 170 -37 121
-125 363 -137 377 -14 17 -28 17 -28 -2z m269 -746 c6 -27 11 -80 10 -117 l-1
-67 -13 60 c-21 92 -30 189 -17 181 6 -3 15 -29 21 -57z"/>
<path d="M2061 3113 c-118 -388 -181 -617 -172 -626 13 -13 4 -40 105 313 47
162 92 315 101 339 17 50 19 71 5 71 -5 0 -23 -44 -39 -97z"/>
<path d="M2334 3083 c3 -65 11 -174 16 -243 5 -69 15 -228 21 -355 7 -126 16
-239 20 -250 13 -34 10 348 -6 565 -29 416 -27 400 -43 400 -13 0 -14 -17 -8
-117z"/>
<path d="M6707 3180 c-3 -8 -12 -58 -22 -110 -16 -90 -98 -369 -185 -625 -22
-65 -40 -124 -40 -129 0 -6 20 9 44 33 38 37 44 50 50 97 3 30 19 96 35 147
17 50 46 155 66 232 20 77 39 142 41 144 7 7 10 -2 26 -79 9 -42 31 -113 48
-159 29 -74 34 -81 47 -68 14 14 13 23 -12 86 -44 117 -56 170 -62 294 -4 70
-11 124 -19 135 -11 14 -13 15 -17 2z"/>
<path d="M4220 3163 c-19 -1 -73 -6 -119 -9 l-84 -6 24 -23 c23 -23 27 -24
124 -15 55 5 150 9 211 10 94 0 113 3 127 18 10 10 17 22 17 25 0 7 -231 7
-300 0z"/>
<path d="M4557 3142 c-18 -20 -18 -20 35 -26 161 -16 239 -26 249 -32 11 -6
-12 -29 -106 -109 -50 -41 -172 -103 -280 -140 -44 -16 -82 -30 -85 -32 -2 -2
63 -71 145 -153 l149 -149 16 37 c22 48 106 161 125 168 8 4 37 -8 63 -25 27
-17 54 -31 60 -31 15 0 159 180 172 215 13 34 -3 136 -28 178 -15 26 -25 33
-59 35 -31 2 -43 8 -51 27 -13 29 -26 32 -162 39 -58 3 -132 8 -165 12 -52 5
-62 4 -78 -14z"/>
<path d="M3800 3134 c-80 -8 -179 -21 -220 -31 -44 -10 -106 -16 -150 -14 -66
2 -78 -1 -94 -18 -15 -17 -16 -23 -6 -36 7 -8 25 -15 41 -15 48 0 93 -52 153
-175 53 -110 43 -223 -29 -326 -50 -71 -54 -95 -25 -132 13 -17 20 -40 20 -71
0 -54 22 -114 45 -122 12 -5 94 71 301 277 l284 284 -108 6 c-71 4 -125 13
-160 27 -61 24 -125 69 -117 83 11 17 43 9 95 -23 54 -34 66 -36 246 -45 77
-4 93 -2 105 13 13 16 11 17 -23 11 -23 -3 -38 -2 -38 4 0 12 62 39 90 39 29
0 25 14 -12 46 l-33 27 -230 -7 c-211 -6 -236 -5 -299 14 -38 10 -70 21 -72
23 -2 2 44 22 101 45 93 37 184 60 309 78 l38 5 -23 25 c-12 13 -27 23 -33 23
-6 -1 -76 -8 -156 -15z"/>
<path d="M7030 3135 c0 -23 63 -185 73 -185 20 0 15 33 -19 113 -33 81 -54
108 -54 72z"/>
<path d="M9567 2869 c1 -133 5 -244 8 -247 3 -3 5 106 5 241 0 136 -3 247 -7
247 -5 0 -7 -109 -6 -241z"/>
<path d="M2098 3065 c-22 -65 -48 -248 -48 -341 0 -57 -6 -148 -14 -202 -21
-139 -22 -165 -10 -169 6 -2 19 46 32 124 24 141 26 187 12 251 -11 44 -6 87
25 231 16 74 18 150 3 106z"/>
<path d="M7875 3061 c-6 -11 149 -490 252 -776 38 -106 83 -211 110 -255 52
-87 51 -85 59 -77 4 3 -18 55 -49 114 -63 125 -86 187 -236 650 -62 188 -116
345 -121 348 -5 3 -11 1 -15 -4z"/>
<path d="M6880 2874 l0 -149 46 46 45 46 -31 91 c-51 146 -60 141 -60 -34z"/>
<path d="M4623 2974 c-38 -16 -50 -32 -29 -40 18 -7 76 26 76 43 0 16 -6 15
-47 -3z"/>
<path d="M4325 2910 c-29 -30 -35 -40 -21 -40 9 0 15 -4 11 -9 -13 -21 15 -18
80 10 38 16 82 29 96 29 40 0 59 10 59 31 0 17 -8 19 -93 19 l-93 0 -39 -40z"/>
<path d="M8440 2933 c0 -32 43 -164 99 -299 57 -140 171 -377 177 -371 2 2
-50 139 -116 303 -153 380 -159 395 -160 367z"/>
<path d="M4245 2920 c17 -19 19 -19 37 -4 24 23 24 24 -19 24 -36 0 -36 0 -18
-20z"/>
<path d="M7123 2914 c-8 -22 17 -92 45 -126 14 -16 26 -27 28 -25 5 5 -56 167
-62 167 -3 0 -7 -7 -11 -16z"/>
<path d="M7787 2856 c-7 -19 41 -211 83 -331 33 -94 127 -296 154 -330 8 -11
-2 21 -24 70 -21 50 -73 202 -114 339 -41 137 -79 253 -84 258 -6 6 -12 3 -15
-6z"/>
<path d="M7350 2824 c0 -22 9 -67 20 -100 12 -32 23 -84 27 -115 l6 -57 118
-118 c66 -65 119 -116 119 -113 0 13 -40 118 -70 184 -17 38 -64 119 -104 180
-40 60 -82 126 -94 145 l-22 35 0 -41z"/>
<path d="M6686 2830 c-7 -33 -26 -233 -26 -282 0 -79 18 -25 25 74 4 57 10
124 14 149 9 53 -2 103 -13 59z"/>
<path d="M4250 2830 c-13 -8 -12 -10 3 -10 9 0 17 5 17 10 0 12 -1 12 -20 0z"/>
<path d="M4225 2779 c-33 -8 -67 -36 -197 -167 -87 -86 -158 -159 -158 -162 0
-3 21 -13 48 -22 53 -19 126 -77 146 -117 8 -14 26 -77 41 -140 l27 -114 -20
-75 c-27 -97 -16 -130 49 -156 89 -36 163 -17 190 47 17 39 -4 151 -42 225
-34 68 -36 85 -9 112 29 29 50 14 93 -67 47 -91 67 -163 67 -242 0 -85 -15
-137 -51 -184 -48 -60 -62 -102 -51 -154 9 -42 9 -45 -15 -54 -13 -5 -86 -9
-162 -9 l-138 0 -102 45 c-226 100 -306 149 -497 305 -85 69 -100 78 -113 66
-12 -13 -10 -20 17 -51 18 -19 42 -55 53 -78 12 -23 34 -60 49 -82 15 -22 33
-51 40 -65 30 -57 -24 6 -86 101 -64 97 -90 127 -101 116 -9 -10 54 -108 146
-225 109 -138 276 -331 312 -360 31 -25 138 -77 145 -69 2 2 -25 21 -61 42
-65 38 -103 71 -93 80 2 3 51 -25 107 -61 127 -81 210 -121 371 -178 l125 -44
7 -105 c5 -87 18 -146 74 -346 54 -192 71 -238 81 -229 7 6 13 16 13 23 0 7
-27 109 -60 228 -67 240 -87 353 -73 407 11 40 -9 35 258 70 336 45 727 140
780 190 14 13 23 25 21 27 -2 2 -50 -12 -107 -31 -176 -58 -472 -116 -865
-167 -131 -17 -178 -20 -200 -11 -142 53 -312 132 -374 174 -191 131 -259 181
-281 211 -41 55 -198 311 -194 316 3 2 22 -12 43 -31 53 -48 127 -97 327 -218
94 -57 202 -126 240 -153 39 -28 110 -71 159 -95 96 -47 92 -41 70 -121 -11
-38 17 -21 32 20 25 70 23 73 -91 134 -58 31 -105 60 -105 63 0 4 49 6 108 4
121 -4 182 8 327 63 117 45 735 351 735 364 0 24 -29 16 -196 -60 -245 -111
-308 -137 -378 -155 -34 -8 -114 -31 -179 -51 -133 -41 -137 -41 -137 34 0 33
7 50 28 73 29 33 42 36 113 25 43 -7 49 -5 85 28 l39 35 35 -59 c34 -58 50
-72 50 -46 0 7 -21 56 -46 108 -73 150 -85 186 -85 258 0 36 5 82 11 101 18
60 60 258 60 286 0 21 -37 64 -177 205 -192 195 -184 190 -278 168z m-25 -904
c36 -19 40 -24 22 -25 -27 0 -82 26 -82 40 0 14 10 12 60 -15z m310 -62 c0 -5
-5 -15 -10 -23 -8 -12 -10 -11 -10 8 0 12 5 22 10 22 6 0 10 -3 10 -7z"/>
<path d="M6935 2730 l-49 -50 13 -76 c7 -42 11 -78 8 -80 -2 -3 -16 23 -31 57
-23 54 -29 60 -41 48 -12 -12 -10 -26 10 -97 33 -113 43 -176 60 -402 13 -181
13 -211 0 -198 -12 12 -115 322 -115 346 0 34 -14 57 -29 48 -16 -10 -14 -63
9 -237 27 -201 49 -288 106 -409 26 -55 45 -103 42 -105 -12 -13 -112 81 -178
166 -120 156 -176 302 -187 492 -3 53 -9 97 -12 97 -4 0 -30 -24 -58 -52 -56
-58 -71 -88 -97 -196 -10 -40 -22 -75 -27 -78 -5 -3 -9 24 -9 60 0 36 -4 66
-9 66 -25 0 -98 -105 -186 -270 -54 -102 -106 -197 -116 -211 -10 -15 -44 -39
-76 -54 -94 -44 -246 -146 -234 -158 6 -6 55 18 144 72 74 44 137 81 140 81 3
0 -12 -48 -33 -107 -20 -60 -43 -136 -50 -171 l-13 -63 69 -70 c38 -38 71 -69
75 -69 3 0 14 21 24 48 35 92 128 292 136 292 5 0 9 -55 9 -122 0 -269 97
-492 303 -696 l104 -103 6 137 c4 75 7 178 7 228 -1 82 -5 125 -25 266 -6 44
-6 45 9 18 45 -77 56 -268 31 -523 l-13 -140 61 -62 c34 -35 64 -63 68 -63 12
0 39 114 56 233 18 125 33 138 33 27 0 -54 -26 -183 -55 -275 -4 -15 8 -33 53
-78 l59 -59 7 39 c10 52 62 156 93 185 l26 23 -7 -54 c-4 -30 -21 -97 -37
-149 l-31 -94 38 -39 c36 -37 39 -38 57 -22 10 10 28 39 39 65 20 47 38 63 38
33 0 -8 4 -15 10 -15 12 0 24 45 15 60 -8 13 13 80 26 80 5 0 12 -14 16 -30 3
-17 11 -29 17 -27 6 3 9 11 8 18 -12 47 -12 156 0 176 7 12 30 51 51 87 21 36
42 66 48 66 5 0 26 -34 46 -75 21 -41 41 -75 46 -75 22 0 15 37 -22 106 -23
41 -41 84 -41 93 0 10 23 66 51 125 52 108 79 215 65 252 -7 17 -9 16 -20 -11
-12 -26 -13 -16 -8 80 2 61 6 112 8 114 19 21 95 -183 101 -269 6 -88 12 -112
26 -107 9 3 12 43 12 143 l0 139 57 120 c31 66 63 145 72 175 38 129 58 366
36 424 -5 14 -6 26 -2 26 25 0 372 -195 462 -260 100 -71 101 -69 10 24 -90
92 -109 105 -345 231 -178 96 -188 107 -154 185 12 27 18 57 15 66 -8 20 -22
9 -28 -21 -2 -11 -10 -20 -18 -20 -9 0 -18 21 -27 65 -13 65 -14 65 -141 193
-69 70 -130 127 -134 127 -5 0 -8 -62 -8 -137 -1 -112 -3 -134 -13 -118 -6 11
-14 58 -18 105 -8 94 -48 235 -79 272 -26 31 -25 18 10 -97 16 -55 27 -101 25
-104 -7 -7 -51 97 -80 192 -15 48 -33 92 -41 98 -9 7 -14 8 -14 1 0 -33 50
-163 102 -263 36 -70 58 -125 56 -139 -3 -20 -14 -10 -81 71 -85 102 -211 285
-248 362 -13 26 -26 47 -29 47 -3 0 -28 -22 -55 -50z m333 -567 c67 -203 93
-267 143 -353 131 -226 150 -261 170 -312 23 -60 44 -222 30 -245 -6 -11 -12
11 -20 68 -7 46 -21 110 -32 141 -25 76 -100 223 -158 313 -38 57 -66 124
-130 311 -80 231 -106 324 -92 324 4 0 44 -111 89 -247z m-215 -313 c80 -255
104 -350 124 -501 35 -263 20 -461 -45 -596 -27 -58 -50 -74 -27 -20 7 18 24
71 36 117 20 73 23 108 23 255 0 202 -20 331 -88 565 -66 229 -96 345 -96 366
1 34 16 -4 73 -186z m226 -1120 c-3 -93 -8 -133 -18 -142 -12 -11 -13 -9 -7
12 3 14 6 78 6 143 0 78 4 117 11 117 8 0 10 -40 8 -130z"/>
<path d="M1414 2663 c-71 -53 -154 -120 -185 -148 -37 -34 -78 -60 -118 -75
-34 -12 -61 -29 -61 -36 0 -20 12 -18 176 30 180 53 300 95 399 141 71 32 87
46 66 59 -5 4 -107 -32 -226 -80 -119 -47 -226 -84 -238 -82 -15 2 24 37 157
137 97 74 179 138 182 143 18 29 -40 -5 -152 -89z"/>
<path d="M8300 2728 c0 -7 82 -177 182 -377 161 -323 188 -371 235 -418 29
-29 58 -53 63 -53 5 0 -17 35 -48 79 -35 48 -125 214 -232 427 -156 312 -200
386 -200 342z"/>
<path d="M7560 2704 c0 -11 22 -86 104 -349 13 -44 25 -70 25 -58 1 36 -48
258 -70 316 -20 53 -58 112 -59 91z"/>
<path d="M1760 2675 c-34 -18 -41 -25 -28 -30 9 -4 30 1 47 10 33 17 38 10 20
-29 -7 -14 -8 -33 -4 -43 5 -14 12 -7 31 36 13 29 24 60 24 67 0 21 -39 16
-90 -11z"/>
<path d="M2235 2608 c-9 -84 10 -477 24 -491 6 -6 13 -8 17 -5 9 10 -14 540
-25 551 -6 6 -12 -15 -16 -55z"/>
<path d="M6731 2594 c0 -11 3 -14 6 -6 3 7 2 16 -1 19 -3 4 -6 -2 -5 -13z"/>
<path d="M2178 2550 c-11 -51 -28 -217 -28 -277 0 -80 16 -63 30 30 12 90 11
308 -2 247z"/>
<path d="M9570 2045 c0 -289 -4 -525 -8 -525 -13 0 -177 142 -270 233 -116
114 -157 170 -185 255 -22 67 -26 72 -41 57 -14 -15 -14 -19 1 -58 46 -119
219 -319 388 -450 50 -38 95 -79 102 -91 12 -21 18 -126 7 -126 -3 0 -40 29
-82 65 -104 88 -113 86 -63 -13 38 -76 57 -140 76 -246 8 -49 15 -91 15 -93 0
-2 5 -1 11 3 15 9 3 136 -22 226 -11 39 -18 72 -17 73 2 2 19 -8 39 -20 35
-23 36 -26 42 -101 10 -110 9 -254 -2 -254 -5 0 -84 47 -177 105 -108 68 -192
128 -231 167 -64 63 -95 73 -53 16 13 -18 17 -29 9 -25 -204 87 -367 162 -381
174 -10 9 -29 35 -43 58 -23 40 -51 62 -63 51 -3 -3 9 -27 26 -53 17 -26 29
-49 27 -51 -7 -8 -101 28 -136 52 -24 17 -40 21 -50 15 -11 -6 40 -63 216
-240 127 -127 295 -288 375 -357 80 -70 209 -184 288 -254 78 -71 144 -128
147 -128 16 0 -2 28 -54 84 -32 35 -64 73 -71 85 -6 13 -24 28 -39 34 -30 13
-449 367 -565 477 -62 59 -153 176 -144 185 7 8 165 -42 218 -69 30 -16 73
-34 95 -42 80 -28 385 -179 390 -194 3 -8 43 -41 88 -73 45 -32 93 -67 107
-79 l25 -20 5 -262 c3 -143 7 233 8 837 1 603 0 1097 -3 1097 -3 0 -5 -236 -5
-525z"/>
<path d="M1760 2540 c0 -22 -291 -589 -328 -640 -37 -49 -98 -105 -162 -148
-68 -45 -282 -141 -334 -151 -52 -8 -60 -31 -12 -31 93 0 363 43 440 70 44 16
82 27 84 25 2 -2 -13 -61 -33 -132 -36 -126 -66 -196 -145 -343 -49 -91 -83
-194 -104 -319 -20 -116 -21 -184 -4 -179 7 3 34 54 60 114 85 198 92 213 100
208 12 -8 10 -432 -2 -454 -7 -13 -45 -30 -112 -50 -99 -31 -100 -32 -82 -51
19 -19 21 -18 124 21 57 22 106 38 108 35 2 -2 -22 -40 -54 -85 -33 -45 -58
-85 -56 -89 6 -18 28 3 105 99 46 58 132 159 192 225 141 157 157 166 128 80
-13 -39 -17 -90 -17 -225 -1 -96 3 -184 7 -194 7 -17 18 -10 91 63 75 75 84
88 96 139 17 80 26 92 34 48 4 -20 10 -36 14 -36 4 0 110 103 235 228 l228
228 -30 120 c-60 235 -62 320 -20 667 22 175 22 188 6 204 -13 14 -17 14 -21
2 -3 -8 -14 -126 -26 -264 -12 -137 -25 -261 -29 -275 -7 -21 -12 -11 -39 70
-41 122 -67 247 -82 386 -11 100 -22 147 -32 134 -2 -3 -14 -41 -26 -85 -24
-84 -199 -455 -215 -455 -5 0 -6 10 -2 23 4 12 11 164 15 337 5 173 13 358 18
410 6 52 7 115 3 140 l-7 45 -12 -40 c-19 -66 -88 -219 -101 -223 -13 -4 -10
37 16 225 8 62 12 117 8 123 -8 13 -25 13 -25 0z m-34 -257 c-10 -123 -30
-201 -76 -298 -25 -52 -48 -122 -60 -182 -24 -115 -146 -545 -167 -586 -8 -16
-37 -56 -64 -90 -28 -34 -77 -116 -109 -182 -33 -66 -59 -113 -60 -105 -1 57
97 317 172 453 47 87 70 150 97 267 12 52 31 107 42 122 18 25 26 58 14 58 -3
0 -22 -11 -43 -25 -20 -13 -77 -36 -127 -50 -110 -31 -295 -65 -295 -54 0 4
28 17 63 28 96 32 182 88 274 176 80 78 86 86 199 305 113 218 131 250 142
250 2 0 2 -39 -2 -87z m91 -180 c11 -115 10 -527 -1 -622 -7 -60 -6 -73 5 -69
8 2 62 98 120 213 59 115 111 211 117 213 6 2 18 -8 28 -23 38 -59 -21 -192
-189 -425 -90 -125 -142 -233 -174 -366 -14 -60 -32 -124 -40 -143 -17 -40
-267 -307 -294 -314 -35 -9 -42 26 -36 173 10 215 22 265 174 725 79 239 94
294 86 315 -13 33 -3 61 82 229 73 147 93 181 105 181 5 0 12 -39 17 -87z"/>
<path d="M1727 1963 c-15 -37 -35 -104 -46 -148 -24 -99 -55 -294 -47 -302 3
-3 8 0 10 8 14 40 117 501 113 505 -3 3 -16 -25 -30 -63z"/>
<path d="M1750 1694 c-34 -89 -145 -588 -138 -622 2 -9 14 21 26 68 12 47 36
137 52 200 32 123 81 372 75 379 -3 2 -9 -9 -15 -25z"/>
<path d="M1516 1023 c-31 -131 -50 -352 -27 -328 7 8 40 228 55 368 5 52 -12
27 -28 -40z"/>
<path d="M6740 2516 c0 -33 49 -186 59 -186 7 0 1 36 -34 188 -7 30 -25 28
-25 -2z"/>
<path d="M6662 2446 c-25 -57 16 -450 58 -562 19 -48 18 -21 -1 76 -18 90 -37
291 -42 445 -2 66 -3 68 -15 41z"/>
<path d="M6008 2312 c-174 -129 -386 -265 -596 -381 -106 -59 -134 -90 -71
-77 27 5 28 4 22 -24 -8 -43 9 -36 31 11 13 29 35 51 75 76 31 19 113 74 184
121 70 47 130 82 133 79 3 -3 -42 -112 -99 -244 -57 -131 -102 -240 -100 -243
9 -10 32 32 108 198 43 92 95 203 115 247 l38 80 154 117 c154 117 211 168
191 168 -6 0 -89 -58 -185 -128z"/>
<path d="M2633 2190 c9 -296 38 -532 64 -506 8 8 -50 691 -60 701 -6 6 -7 -66
-4 -195z"/>
<path d="M3682 2267 c-115 -115 -114 -108 -22 -151 60 -28 150 -35 167 -13 10
13 33 138 33 181 0 26 -44 86 -64 86 -6 0 -58 -46 -114 -103z"/>
<path d="M8243 2340 c9 -34 156 -273 222 -361 84 -112 222 -246 237 -231 8 8
-8 30 -63 84 -105 102 -174 192 -264 343 -94 157 -113 185 -127 185 -6 0 -8
-9 -5 -20z"/>
<path d="M1982 2168 c-12 -79 -22 -147 -22 -153 2 -23 21 42 40 140 21 112 25
155 12 155 -4 0 -17 -64 -30 -142z"/>
<path d="M7933 2263 c20 -106 154 -398 206 -447 l31 -29 -34 79 c-57 136 -186
408 -197 419 -9 7 -10 1 -6 -22z"/>
<path d="M2141 2098 c1 -69 2 -71 10 -28 11 64 11 100 -1 100 -6 0 -9 -30 -9
-72z"/>
<path d="M2865 2141 c-4 -12 -4 -39 -1 -59 3 -20 10 -127 16 -237 6 -110 13
-219 16 -243 4 -33 2 -43 -11 -48 -26 -10 -33 5 -52 121 -26 155 -53 138 -38
-24 6 -64 11 -78 40 -110 l33 -36 26 24 c23 22 26 32 28 120 l3 96 21 -45 c12
-25 25 -54 28 -64 6 -17 9 -18 21 -5 17 17 7 71 -30 164 -28 72 -40 120 -59
251 -16 101 -29 132 -41 95z"/>
<path d="M2260 2035 c0 -15 4 -24 10 -20 6 3 10 12 10 20 0 8 -4 17 -10 20 -6
4 -10 -5 -10 -20z"/>
<path d="M2366 1864 c-9 -108 -7 -491 3 -539 10 -48 10 -48 15 40 11 189 10
568 0 572 -7 2 -13 -24 -18 -73z"/>
<path d="M8947 1872 c58 -90 189 -271 196 -272 16 0 -150 264 -181 288 -27 21
-35 13 -15 -16z"/>
<path d="M3236 1821 c-14 -15 -17 -34 -14 -84 1 -36 0 -68 -2 -70 -11 -9 -97
-57 -103 -57 -4 0 -7 19 -7 42 l0 41 -21 -19 c-20 -18 -21 -26 -16 -110 4 -50
9 -98 13 -107 3 -9 2 -17 -3 -17 -5 0 -22 36 -37 80 l-28 80 -39 -37 c-22 -21
-39 -39 -39 -40 0 -1 15 1 33 4 l32 5 33 -90 c17 -49 35 -103 38 -120 3 -17
17 -41 30 -53 l23 -22 -7 39 c-4 22 -7 93 -7 158 l0 120 55 32 55 32 18 -91
c10 -51 28 -153 41 -227 21 -120 22 -139 9 -174 l-13 -40 492 -493 493 -493
65 65 65 65 -19 72 c-10 40 -45 154 -76 253 -32 99 -64 208 -71 243 -14 73 -9
69 -199 171 -184 99 -287 178 -477 370 -192 192 -207 214 -258 394 -16 53 -31
97 -35 97 -4 0 -15 -9 -24 -19z"/>
<path d="M2506 1700 c-4 -62 -16 -139 -26 -173 -10 -34 -21 -82 -25 -107 -4
-25 -15 -88 -26 -142 -10 -53 -19 -127 -19 -164 l0 -69 71 72 c71 70 72 71 60
103 -16 47 -13 110 7 145 34 60 77 125 82 125 3 0 25 -25 49 -55 41 -51 71
-70 71 -44 0 6 -13 28 -28 48 -44 55 -76 116 -117 223 -22 56 -50 108 -65 123
l-27 26 -7 -111z m85 -112 c19 -36 13 -70 -27 -136 -20 -34 -40 -65 -44 -67
-14 -9 -20 56 -10 102 12 52 46 123 60 123 5 0 15 -10 21 -22z"/>
<path d="M5276 1567 c-36 -112 -66 -208 -66 -212 0 -4 6 -3 13 3 6 6 41 96 77
201 49 144 62 193 53 202 -8 8 -27 -38 -77 -194z"/>
<path d="M8726 1722 c-7 -12 120 -111 239 -186 l30 -19 -20 23 c-24 27 -211
179 -230 186 -7 3 -16 1 -19 -4z"/>
<path d="M2691 1603 c1 -15 5 -39 9 -53 7 -20 8 -16 9 22 1 26 -3 50 -9 53 -6
4 -10 -6 -9 -22z"/>
<path d="M8385 1572 c51 -54 85 -76 85 -56 0 7 -51 50 -104 88 -37 26 -35 23
19 -32z"/>
<path d="M2820 1491 c0 -5 5 -13 10 -16 6 -3 10 -2 10 4 0 5 -4 13 -10 16 -5
3 -10 2 -10 -4z"/>
<path d="M2850 1435 c-10 -12 -6 -27 19 -81 17 -37 29 -69 26 -72 -2 -3 -21 8
-41 24 -66 53 -75 57 -84 48 -6 -6 26 -33 86 -73 53 -34 103 -65 111 -68 8 -3
0 19 -21 58 -19 35 -42 90 -52 122 -19 60 -24 66 -44 42z"/>
<path d="M5620 1389 c-56 -30 -103 -69 -95 -77 6 -6 175 90 175 100 0 15 -24
8 -80 -23z"/>
<path d="M6152 1258 c-16 -40 -38 -97 -47 -126 l-18 -54 124 -124 c67 -68 125
-122 127 -120 2 2 -16 42 -39 87 -71 143 -90 204 -96 312 -3 53 -9 97 -13 97
-4 0 -21 -33 -38 -72z"/>
<path d="M4356 1228 c-20 -31 -15 -78 8 -78 19 0 23 17 16 65 l-5 40 -19 -27z"/>
<path d="M5553 1209 c-34 -16 -95 -38 -134 -49 -70 -19 -99 -34 -88 -45 16
-15 309 99 309 120 0 10 -27 2 -87 -26z"/>
<path d="M5771 1175 c-112 -65 -194 -97 -438 -173 l-183 -57 -227 -227 -226
-226 43 -124 c23 -68 66 -177 94 -243 l52 -120 588 -3 589 -2 124 65 c67 36
123 61 123 57 -1 -19 -23 -37 -101 -77 l-84 -44 90 -1 91 0 22 74 c35 121 136
345 149 332 4 -3 -88 -351 -104 -392 -3 -9 1 -14 13 -14 16 0 25 25 58 160 21
88 43 163 48 166 6 4 7 -56 3 -160 l-8 -166 77 0 77 0 67 51 67 51 3 -51 c2
-36 7 -51 18 -51 11 0 14 15 14 69 0 64 3 73 36 116 l36 47 -43 44 -43 44 -26
-49 c-35 -63 -71 -113 -77 -107 -3 2 11 40 31 84 20 44 36 86 36 93 0 8 -68
82 -151 164 -141 139 -151 148 -145 115 4 -19 10 -60 13 -90 6 -48 4 -53 -9
-42 -8 6 -20 44 -27 84 -7 40 -20 90 -30 113 -19 41 -325 354 -336 344 -3 -3
-11 -54 -17 -112 -10 -90 -10 -119 5 -198 9 -52 15 -95 13 -96 -1 -2 -22 14
-46 34 -29 25 -54 60 -76 108 -58 128 -69 177 -69 328 0 85 -4 137 -10 137 -5
-1 -52 -25 -104 -55z m813 -886 c-27 -138 -53 -229 -67 -229 -13 0 -2 104 19
190 14 56 58 160 68 160 1 0 -8 -54 -20 -121z"/>
<path d="M5910 1093 c0 -55 7 -125 16 -162 21 -86 86 -226 112 -240 19 -10 20
-9 7 33 -23 77 -27 166 -11 256 l15 85 -62 63 c-34 34 -65 62 -69 62 -4 0 -8
-44 -8 -97z"/>
<path d="M3952 1148 c2 -7 70 -47 151 -87 173 -88 155 -59 222 -351 57 -246
105 -420 116 -420 4 0 10 3 12 8 2 4 -35 162 -82 352 l-86 345 -160 81 c-88
45 -164 82 -168 83 -5 1 -7 -5 -5 -11z"/>
<path d="M2481 1066 l-74 -75 16 -55 c18 -66 6 -73 -24 -14 l-21 41 -240 -240
-240 -241 11 -68 c22 -128 52 -229 98 -322 l45 -92 189 0 189 0 0 69 c0 71 6
101 20 101 5 0 32 -38 61 -85 l52 -85 47 0 47 0 -19 78 c-45 186 -58 258 -68
359 -5 59 -13 118 -16 131 -11 38 9 24 51 -35 66 -94 115 -143 208 -205 l89
-60 -7 -41 c-4 -23 -22 -81 -41 -128 -19 -48 -34 -89 -34 -93 0 -3 269 -6 598
-6 l597 1 -40 31 c-22 17 -62 56 -90 86 -27 31 -72 76 -100 101 -103 95 -185
182 -230 246 -49 68 -135 213 -135 227 0 26 26 -3 76 -84 31 -51 76 -118 99
-148 49 -64 309 -322 407 -404 58 -49 72 -56 109 -56 37 0 49 6 86 42 l43 43
-437 437 c-241 241 -441 438 -444 438 -4 0 2 -30 12 -67 22 -77 23 -86 10 -78
-5 3 -24 49 -41 103 -33 98 -62 145 -79 127 -5 -6 -39 -79 -75 -164 -104 -239
-259 -563 -274 -569 -54 -20 -189 291 -323 745 -13 46 -26 83 -29 83 -3 0 -39
-33 -79 -74z m544 -823 c30 -15 55 -31 55 -35 0 -18 -34 -20 -78 -7 -52 16
-76 44 -52 59 19 12 11 14 75 -17z"/>
<path d="M7677 1100 c-23 -22 -37 -40 -32 -40 6 0 29 18 50 40 51 52 37 52
-18 0z"/>
<path d="M5255 1119 c-11 -17 1 -21 15 -4 8 9 8 15 2 15 -6 0 -14 -5 -17 -11z"/>
<path d="M7715 1070 c-16 -18 -16 -20 -2 -20 9 0 21 9 27 20 6 11 7 20 2 20
-5 0 -17 -9 -27 -20z"/>
<path d="M4714 1030 c-116 -20 -219 -42 -229 -47 -46 -26 30 -19 231 22 119
25 220 45 225 45 5 0 9 5 9 10 0 13 7 14 -236 -30z"/>
<path d="M7805 1029 c-11 -4 -32 -8 -47 -8 -26 -1 -88 -44 -88 -62 0 -5 19 0
41 12 27 13 52 19 70 15 29 -6 53 13 47 37 -2 10 -9 12 -23 6z"/>
<path d="M7800 939 c-77 -55 -108 -84 -98 -94 4 -4 77 42 120 75 24 18 75 80
66 80 -2 0 -41 -27 -88 -61z"/>
<path d="M7971 901 c-49 -46 -69 -71 -61 -76 12 -7 121 91 141 128 18 32 -5
17 -80 -52z"/>
<path d="M4960 899 c-48 -11 -151 -22 -237 -26 -84 -3 -153 -9 -153 -12 0 -5
27 -83 97 -278 9 -24 19 -43 22 -43 3 0 92 86 196 190 104 105 183 189 175
189 -8 -1 -53 -10 -100 -20z"/>
<path d="M8011 865 c-42 -38 -51 -56 -28 -54 15 1 82 77 74 85 -3 3 -24 -11
-46 -31z"/>
<path d="M4470 839 c0 -26 62 -326 80 -392 9 -31 14 -36 25 -27 11 9 9 26 -11
98 -13 48 -35 141 -50 207 -25 117 -44 165 -44 114z"/>
<path d="M7755 826 c-44 -37 -45 -59 -1 -25 22 17 53 59 44 59 -2 0 -21 -16
-43 -34z"/>
<path d="M7727 724 c-10 -10 3 -107 16 -116 6 -3 33 5 61 19 57 29 49 43 -9
19 -21 -9 -41 -16 -46 -16 -4 0 -9 23 -11 51 -2 28 -6 47 -11 43z"/>
<path d="M8088 687 c-88 -47 -106 -69 -25 -31 28 14 64 31 80 37 15 6 27 17
27 24 0 17 7 19 -82 -30z"/>
<path d="M7922 660 c-35 -33 -26 -44 16 -19 54 32 59 39 31 39 -14 0 -35 -9
-47 -20z"/>
<path d="M8124 624 c-51 -27 -97 -64 -90 -72 5 -4 156 88 156 95 0 8 -21 1
-66 -23z"/>
<path d="M7303 463 c37 -71 33 -66 46 -58 22 13 -44 115 -74 115 -2 0 11 -26
28 -57z"/>
<path d="M8152 410 c-45 -48 -98 -95 -117 -104 -34 -17 -54 -36 -37 -36 31 0
242 193 242 221 0 13 2 15 -88 -81z"/>
<path d="M965 431 c-44 -16 -123 -46 -175 -68 -52 -22 -133 -55 -180 -73 -166
-64 -342 -164 -448 -253 -73 -61 -18 -45 91 27 104 68 219 128 332 171 39 15
120 47 180 70 61 24 160 60 220 81 61 20 112 38 114 40 8 7 -22 34 -38 33 -9
0 -52 -13 -96 -28z"/>
<path d="M7453 449 c-13 -13 18 -98 73 -198 41 -75 79 -127 138 -189 22 -23
36 -42 32 -42 -9 0 -192 146 -306 243 -35 31 -65 55 -66 54 -2 -2 48 -242 60
-292 4 -14 13 -25 22 -25 16 0 16 -5 -7 129 -5 34 -9 64 -7 66 2 2 66 -41 143
-95 117 -83 146 -99 178 -100 l39 0 -19 23 c-98 126 -154 211 -205 315 -33 67
-61 122 -62 122 -1 0 -7 -5 -13 -11z"/>
<path d="M8042 435 c-66 -26 -172 -91 -172 -106 0 -13 -1 -14 126 57 155 86
161 93 46 49z"/>
<path d="M9140 424 c0 -21 55 -174 63 -174 17 0 -32 171 -51 178 -6 2 -12 0
-12 -4z"/>
<path d="M1745 330 l-69 -69 23 -108 c12 -59 24 -118 27 -130 3 -18 11 -23 34
-23 l30 0 0 67 c0 37 7 125 16 196 8 71 14 131 12 133 -2 2 -35 -28 -73 -66z"/>
<path d="M4584 375 c-4 -9 22 -88 61 -184 73 -183 81 -199 91 -189 4 4 -23 85
-60 180 -36 95 -66 178 -66 185 0 19 -20 26 -26 8z"/>
<path d="M7365 360 c-7 -11 23 -60 36 -60 12 0 11 6 -6 40 -17 32 -21 35 -30
20z"/>
<path d="M4523 313 c-7 -18 54 -210 69 -219 19 -12 17 4 -14 119 -30 114 -42
135 -55 100z"/>
<path d="M9574 165 c0 -94 2 -133 3 -88 2 45 2 122 0 170 -1 48 -3 12 -3 -82z"/>
<path d="M1178 258 c-36 -50 -50 -87 -28 -73 22 13 90 107 84 116 -10 16 -18
9 -56 -43z"/>
<path d="M9250 295 c0 -21 22 -65 32 -65 5 0 7 9 4 20 -3 11 -9 29 -12 40 -6
23 -24 27 -24 5z"/>
<path d="M872 224 c-18 -37 -31 -68 -29 -71 6 -6 77 108 77 124 0 29 -17 9
-48 -53z"/>
<path d="M9360 237 c0 -32 23 -77 33 -67 8 8 -15 100 -25 100 -4 0 -8 -15 -8
-33z"/>
<path d="M7240 237 c0 -39 24 -127 32 -119 11 11 -10 132 -23 132 -5 0 -9 -6
-9 -13z"/>
<path d="M6898 123 c-2 -49 -7 -96 -12 -105 -7 -15 -3 -18 19 -18 17 0 45 15
77 41 l49 42 -33 34 -32 33 -13 -25 c-21 -39 -33 -30 -33 24 0 88 -18 66 -22
-26z"/>
<path d="M928 134 c-66 -100 -82 -134 -64 -134 16 0 119 175 113 193 -2 6 -24
-21 -49 -59z"/>
<path d="M702 133 l-43 -58 25 -3 c14 -2 32 -12 40 -23 13 -19 14 -19 20 3 3
13 6 31 6 41 0 16 -2 16 -25 1 -33 -21 -32 -12 5 47 41 67 23 62 -28 -8z"/>
<path d="M4347 142 c-26 -26 -47 -52 -47 -58 0 -5 17 -27 38 -47 31 -31 45
-37 80 -37 45 0 47 2 33 46 -5 16 -17 55 -26 87 -8 31 -19 57 -23 57 -4 0 -29
-22 -55 -48z"/>
<path d="M7175 167 c-7 -18 22 -145 36 -161 18 -20 19 4 3 75 -20 91 -30 112
-39 86z"/>
<path d="M828 97 c-14 -17 -33 -47 -42 -64 -25 -49 5 -44 35 5 13 20 29 47 36
59 23 35 -2 36 -29 0z"/>
<path d="M7094 89 c-3 -6 3 -20 14 -31 l20 -20 -5 26 c-6 30 -19 41 -29 25z"/>
<path d="M966 61 c-9 -16 -16 -38 -15 -48 0 -10 10 1 21 25 22 50 18 69 -6 23z"/>
<path d="M4230 25 l-23 -25 58 0 58 0 -23 25 c-13 14 -29 25 -35 25 -6 0 -22
-11 -35 -25z"/>
<path d="M1026 21 c-4 -7 -5 -15 -2 -18 9 -9 19 4 14 18 -4 11 -6 11 -12 0z"/>
</g>
</svg>
